<?xml version="1.0" encoding="utf-8"?>
<!-- Generator: Adobe Illustrator 21.0.0, SVG Export Plug-In . SVG Version: 6.00 Build 0)  -->
<svg version="1.1" id="Layer_1" xmlns="http://www.w3.org/2000/svg" xmlns:xlink="http://www.w3.org/1999/xlink" x="0px" y="0px"
	 viewBox="0 0 120 120" style="enable-background:new 0 0 120 120;" xml:space="preserve">
<style type="text/css">
	.st0{display:none;fill:#FF0000;}
	.st1{display:none;fill:#FFFFFF;}
	.st2{fill:#FFFFFF;}
	.st3{opacity:0.8;}
	.st4{fill:none;stroke:#FFFFFF;stroke-width:0.75;stroke-miterlimit:10;}
	.st5{fill-rule:evenodd;clip-rule:evenodd;fill:#00A551;}
	.st6{fill-rule:evenodd;clip-rule:evenodd;fill:#D1BB33;}
	.st7{fill:#D1BB33;}
	.st8{fill:#1F66B0;}
	.st9{fill:#A6A8AB;}
</style>
<rect x="-76" y="-42" class="st0" width="566" height="197"/>
<rect x="24" class="st1" width="70" height="93"/>
<g>
	<g id="remo">
		<g>
			<path class="st2" d="M21.5,111.2c-1.2,0.4-2,0.4-2.5,0.3c0.7,3.8,3.8,7,7.6,6.3c0.2,1.3-3,4.2-6.1,0.2c-2.3-3-2.4-6.8-2.4-6.9
				c-0.3-0.4-0.2-0.9-0.1-1.2c2.4,0.2,11.1-3.5,9.5-6.9c-0.7-1.6-4.4-1.8-7.7-0.8c-2.5,0.7-4.7,2.3-5.9,3.2
				c-2.9,2.1-3.4,4.7-2.8,5.3c1,0.9,2.9-0.8,2.9-0.8s0.7,0.5,0.2,1.1c-0.8,1.2-3.1,1.3-4.5-0.3c-2.3-2.6,0.4-6.7,4.9-8.9
				c4.6-2.2,12.2-2.8,13.8,0.9C29.8,105.9,25.1,110.1,21.5,111.2z M14.2,116.7c-1-4.8,3.5-12.5,4.4-13.2c0,0,1.6-1,1.4-0.6
				c-1.6,3.7-3,7.9-3.1,12.8c-0.1,2.4,0.5,2.5,0.5,2.5C16.3,118.7,14.6,118.7,14.2,116.7z"/>
		</g>
		<g>
			<path class="st2" d="M65,110.2c-0.1,0.3-1.4,1.9-2.8,1.4c0.1-1.7-1-5-3.2-4.9c-1.1,0.1-1.7,0.9-1.2,2.2c-2.2-0.1-3.3,1-3.8,2.2
				c-1.1,1.7-2.3,2.9-3.4,3.7c-0.7,0.5,0-1.5,0.9-4c0.8-1.6-0.6-3-0.9-3.3c0,0-0.1-0.1-0.1-0.1c-0.6-0.4-1.1-1.6-3.2,1.3
				c-1.9,2.6-3,4.7-2.9,4.6c0.2-0.8,2.4-3.8-1.5-5c-1.3-0.4-3.8,4.9-4.9,6.4c0-0.8,0.8-2,1.4-3.6c0.5-1-0.5-1.7-1.2-2
				c-0.5-0.1-0.8,0-1,0.3c-0.1,0.4-0.3,0.7-0.4,1.1c-1,1.8-3.4,4.7-5.8,4.7c-1.5,0.1-1.7-1.9-1.2-3.5c0.7-2.2,1.7-3.1,2.5-3.2
				c0.9-0.1-0.2,3.7-1.1,4.3c-0.3,0.2-0.8,0.4-1.1,0.2c-0.5,0.6,0.5,1.3,1.7,0.8c2-0.8,3.2-4.5,1.5-5.9c-0.3-0.2-0.6-0.4-1.1-0.4
				c-2.2-0.1-4.8,1.6-5.1,5.1c-0.2,2.4,1.4,3.4,3.6,3.5c1.9,0.1,4-1.3,5.4-3c-0.1,1,0,1.9,0.6,2.4c0.2,0.1,0.3,0.3,0.5,0.4
				c0,0,0,0,0,0l0.1,0v0c1,0.2,1.5-0.8,1.5-0.8c1.2-1.7,3.6-6,4.1-5.6c0.4,0.3-0.7,2.4-1.1,5c-0.3,2,1.9,1.8,1.9,1.8
				s1.5-2.5,3.8-5.8c1.3-1.8,1.7-2.3,1.9-2.3c-0.7,2.1-3.4,7.4,0.2,7.8c1.5,0.2,2.9-1.2,4.1-2.7c0.3,2.4,2.6,2.9,4.2,2.9
				c1.8,0,3.9-2.1,4.2-3.8c1.6,0.4,3.3-0.7,3.3-1.9C65.3,110.3,65,110,65,110.2z M57.6,115.1c-1,0.2-1.4-1.1-1.4-2
				c0-1.4,0.6-3,1.8-3.4c0.1,0.5,0.7,1.6,1.9,2.1C59.6,113.1,59.1,114.8,57.6,115.1z M60.1,110.9c-1.1-0.6-1.5-1.5-1.5-2.8
				c0-0.4,0.1-0.6,0.5-0.6c1,0,1.1,1.9,1.1,2.7C60.1,110.5,60.1,110.7,60.1,110.9z"/>
		</g>
	</g>
	<g>
		<path class="st2" d="M88.3,106.4h1.4c0.3,0,0.5,0.2,0.5,0.5l0.4,9.3h-1.2l-0.4-8.7h-0.3l-2.2,7.2c-0.1,0.3-0.3,0.4-0.5,0.4h-1.1
			c-0.3,0-0.5-0.1-0.6-0.4l-2.2-7.2h-0.3l-0.3,8.7h-1.2l0.4-9.3c0-0.3,0.2-0.5,0.5-0.5h1.4c0.3,0,0.4,0.1,0.5,0.4l1.8,6
			c0.1,0.2,0.1,0.4,0.2,0.8c0.1,0.3,0.1,0.5,0.1,0.6h0.3c0-0.1,0.1-0.3,0.2-0.6c0.1-0.3,0.1-0.6,0.2-0.7l1.8-5.9
			C87.8,106.5,88,106.4,88.3,106.4z"/>
		<path class="st2" d="M98.1,113.1h-4l-1,3.1h-1.3l3.1-9.4c0.1-0.2,0.2-0.3,0.5-0.3h1.3c0.3,0,0.4,0.1,0.5,0.3l3.1,9.4h-1.3
			L98.1,113.1z M97.8,112l-1.2-3.9c-0.1-0.2-0.2-0.5-0.2-0.8h-0.4l-0.2,0.8l-1.2,3.9H97.8z"/>
		<path class="st2" d="M103,116.2h-1.2v-9.8h1.2V116.2z"/>
		<path class="st2" d="M106.6,106.4v7.8c0,0.6,0.3,0.9,0.9,0.9h3.5l0.1,1c-0.8,0.1-2.1,0.1-3.8,0.1c-1.3,0-2-0.6-2-1.8v-8H106.6z"/>
	</g>
	<g>
		<rect x="72.6" y="100" class="st2" width="0.4" height="20"/>
	</g>
</g>
<g>
	<g>
		<polygon class="st5" points="61.9,80.9 71.8,84.5 62,82.2 61.9,80.9 		"/>
		<path class="st6" d="M75,73.5C61.9,80,40.1,83.7,30.2,77.3l0,2.5C43.6,85.3,64,79.7,75,73.5L75,73.5z"/>
		<path class="st6" d="M45,69.3c-2.2-0.5-8.6-1.3-9.3-3.5c-0.3-1,0.4-2.5,1.4-3c1.9-1.2,8.7-2.1,11.1-2.2c2.6-0.1,5.9-0.2,8.5-0.1
			c2.1,0.1,15.2,1.8,10.6,5.6c-0.8,0.7-3,1.3-4.1,1.6c-0.1,0-0.1,0-0.2,0c1.4-0.7,3.4-1.1,4.4-2.3c2.7-3.1-9.1-4.3-10.7-4.4
			c-2.4-0.1-5.3,0.1-7.7,0.2c-2.6,0.1-5.7,0.6-8.2,1.2c-1.8,0.4-3.7,0.7-4,2.6c-0.2,1.7,7,2.7,8.5,3c0.3,0.1,0.5,0.4,0.5,0.7
			C45.7,69.2,45.4,69.4,45,69.3L45,69.3z"/>
		<path class="st5" d="M29.5,73.2c1.6,2.1,1.4,5.4,0.9,7.4c0-2.5,0-5.6-2.1-7.9L29.5,73.2L29.5,73.2z"/>
		<path class="st5" d="M34.8,75c1.4,2.4,1.9,5.3,1.2,7.4c0.3-2.7,0-4.8-2-7.5L34.8,75L34.8,75z"/>
		<path class="st5" d="M39.1,67.7c1-2.1,4.9-4,7.1-4.4c0.9-0.2,4.1-0.3,5.1-0.2c-1.3,0.2-2.8,0.3-4.2,0.5c-2.1,0.2-6.5,2.2-7.4,4.3
			c0,0.2-0.2,0.2-0.4,0.2C39.2,68,39.1,67.9,39.1,67.7L39.1,67.7z"/>
		<path class="st5" d="M44.7,70.1c-2.3-0.6-9-1.6-9.7-4c-0.3-1.2,0.5-2.9,1.4-3.6c2-1.4,9.1-2.5,11.6-2.6c2.7-0.1,6.2-0.2,8.9-0.1
			c2.2,0.1,16,2.2,11.2,6.6c-0.9,0.9-3.4,1.7-4.6,2.1c-0.6,0.2-0.5,0.2-1,0.3c0.5-0.3,1.1-0.5,1.7-0.8c1.3-0.6,3.1-1.1,4-2.3
			c2.8-3.6-9.6-5.1-11.3-5.1c-2.5-0.1-5.5,0.1-8.1,0.2c-2.8,0.1-5.9,0.7-8.6,1.4c-1.9,0.5-3.9,0.9-4.2,3.1c-0.3,2,7.4,3.2,8.9,3.5
			c0.3,0.1,0.6,0.4,0.5,0.8C45.4,69.9,45,70.2,44.7,70.1L44.7,70.1z"/>
		<path class="st5" d="M34.8,61.4c-3.5,1.5-11,4.3-5.8,8.9c3.1,2.7,9.8,3.6,13.8,4.3c4.1,0.8,17.3,0.3,21.4-0.6
			c1.2-0.3,1.3-0.3,2.6-0.4c3.3-0.4,8.9-2.2,10.2-5.4c1.2-3-3-4.6-5.1-5.5c-2.7-1.2-3.4-1.3-6.2-1.8l-0.6-0.1c2.8,0.1,4.5,0.5,7,1.6
			c2.4,1,6.8,2.7,5.4,6.1c-1.4,3.6-7.1,5.5-10.7,6c-1.3,0.2-1.2,0.1-2.5,0.5c-2.2,0.5-5.5,0.8-7.8,0.9c-4.6,0.3-10.3,0.6-14.8-0.2
			c-4.6-0.9-12-1.5-14.8-5.8c-3.3-5.1,3.9-7.8,7.4-9.4c0.3-0.1,0.7,0,0.9,0.3C35.3,60.9,35.2,61.3,34.8,61.4L34.8,61.4z"/>
		<path class="st5" d="M35,60.7c-3.5,1.5-11,4.3-5.8,8.9c3.1,2.7,9.8,3.6,13.8,4.3c4.1,0.8,17.3,0.3,21.4-0.6
			c1.2-0.3,1.3-0.3,2.6-0.4c3.3-0.4,8.9-2.2,10.2-5.4c1.2-3-3-4.6-5.1-5.5c-2.7-1.2-3.4-1.3-6.2-1.8L65.2,60c2.8,0.1,4.5,0.5,7,1.6
			c2.4,1,6.8,2.7,5.4,6.1c-1.4,3.6-7.1,5.5-10.7,6c-1.3,0.2-1.2,0.1-2.5,0.5c-2.2,0.5-5.5,0.8-7.8,0.9c-4.6,0.3-10.3,0.6-14.8-0.2
			c-4.6-0.9-12-1.5-14.8-5.8c-3.3-5.1,3.9-7.8,7.4-9.4c0.3-0.1,0.7,0,0.9,0.3C35.4,60.2,35.3,60.6,35,60.7L35,60.7z"/>
		<path class="st5" d="M64.6,67.6c-0.6-2.1-2.5-2.8-4.5-3.3c-1.7-0.5-3.3-0.6-4.9-1c1.8,0,4.1,0.3,5.7,0.8c2,0.6,3.5,1.3,4.2,3.4
			c0,0.2-0.1,0.3-0.2,0.4C64.8,67.9,64.6,67.8,64.6,67.6L64.6,67.6z"/>
		<path class="st5" d="M64.7,66.9c-0.6-2.1-2.5-2.8-4.5-3.3c-1.7-0.5-3.3-0.6-4.9-1c1.8,0,4.1,0.3,5.7,0.8c2,0.6,3.5,1.3,4.2,3.4
			c0,0.2-0.1,0.3-0.2,0.4C64.9,67.2,64.7,67.1,64.7,66.9L64.7,66.9z"/>
		<path class="st5" d="M39.2,67c1-2.1,4.9-4,7.1-4.4c0.9-0.2,4.1-0.3,5.1-0.2c-1.3,0.2-2.8,0.3-4.2,0.5c-2.1,0.2-6.5,2.2-7.4,4.3
			c0,0.2-0.2,0.2-0.4,0.2C39.3,67.3,39.2,67.2,39.2,67L39.2,67z"/>
		<path class="st5" d="M38.6,76.3c-2.9-1-6.3-1.1-9-2.7c-1.6-0.9-2.6-1.2-3.6-3.1c-0.7-1.4-0.9-3.5-0.2-4.9c0.3-0.6,1.1-2.3,1.8-2.6
			c-0.7,0.6-1.3,2-1.6,2.7c-0.5,1.2-0.4,2.8,0.1,4c0.8,2.2,2.1,2.5,3.8,3.5c2.6,1.4,6.2,1.5,9,2.5c0.2,0.1,0.2,0.3,0.1,0.4
			C38.9,76.3,38.7,76.4,38.6,76.3L38.6,76.3z"/>
		<path class="st5" d="M38.7,75.6c-2.9-1-6.3-1.1-9-2.7c-1.6-0.9-2.6-1.2-3.6-3.1c-0.7-1.4-0.9-3.5-0.2-4.9c0.3-0.6,1.1-2.3,1.8-2.6
			c-0.7,0.6-1.3,2-1.6,2.7c-0.5,1.2-0.4,2.8,0.1,4c0.8,2.2,2.1,2.5,3.8,3.5c2.6,1.4,6.2,1.5,9,2.5c0.2,0.1,0.2,0.3,0.1,0.4
			C39,75.6,38.9,75.7,38.7,75.6L38.7,75.6z"/>
		<polygon class="st5" points="28.9,63.9 35.2,64.1 30.3,62.8 28.9,63.9 		"/>
		<polygon class="st5" points="27.4,68.1 35.1,65.3 26.8,66.6 27.4,68.1 		"/>
		<polygon class="st5" points="31.9,71.7 37.4,66.7 30.3,70.7 31.9,71.7 		"/>
		<polygon class="st5" points="40.3,66 36.3,63.7 39.8,66.6 40.3,66 		"/>
		<polygon class="st5" points="64.7,65.7 68.8,63.6 65,66.6 64.7,65.7 		"/>
		<polygon class="st5" points="63.2,64.5 66.6,61.6 64.1,65.2 63.2,64.5 		"/>
		<polygon class="st5" points="61.1,63.6 62.9,60.4 62,64 61.1,63.6 		"/>
		<polygon class="st5" points="57.7,62.9 59.4,59.6 58.7,63.1 57.7,62.9 		"/>
		<polygon class="st5" points="42,64.7 38.2,61.9 41.2,65.3 42,64.7 		"/>
		<polygon class="st5" points="43.5,63.9 41.3,60.9 42.8,64.3 43.5,63.9 		"/>
		<polygon class="st5" points="45.4,63.1 44.3,60 44.6,63.4 45.4,63.1 		"/>
		<polygon class="st5" points="46.7,62.7 46.8,59.8 47.5,62.7 46.7,62.7 		"/>
		<polygon class="st5" points="49,62.5 49.2,59.6 49.7,62.5 49,62.5 		"/>
		<polygon class="st5" points="38.6,73.5 41.2,68 36.4,72.9 38.6,73.5 		"/>
		<polygon class="st5" points="71.8,61.5 68.8,63.1 72.9,62 71.8,61.5 		"/>
		<polygon class="st5" points="76.9,64.2 68.8,64.2 77.5,65.5 76.9,64.2 		"/>
		<polygon class="st5" points="76.9,68.5 67.9,65.8 75.5,69.8 76.9,68.5 		"/>
		<polygon class="st5" points="71.8,72 64.5,67.4 69.8,72.7 71.8,72 		"/>
		<polygon class="st5" points="54.1,74.7 52.9,69.7 51.1,74.6 54.1,74.7 		"/>
		<polygon class="st5" points="45.3,74.7 46.5,69.8 43.4,74.5 45.3,74.7 		"/>
		<polygon class="st5" points="61.5,74.2 58.8,69.5 60,74.6 61.5,74.2 		"/>
		<path class="st5" d="M44.8,69.4c-2.3-0.6-9-1.6-9.7-4c-0.3-1.2,0.5-2.9,1.4-3.6c2-1.4,9.1-2.5,11.6-2.6c2.7-0.1,6.2-0.2,8.9-0.1
			c2.2,0.1,16,2.2,11.2,6.6c-0.9,0.9-3.4,1.7-4.6,2.1c-0.6,0.2-0.4,0.2-1,0.3c0.5-0.3,1.1-0.5,1.7-0.8c1.3-0.6,3.1-1.1,4-2.3
			c2.8-3.6-9.6-5.1-11.3-5.1c-2.5-0.1-5.5,0.1-8.1,0.2c-2.8,0.1-5.9,0.7-8.6,1.4c-1.9,0.5-3.9,0.9-4.2,3.1c-0.3,2,7.4,3.2,8.9,3.5
			c0.3,0.1,0.6,0.4,0.5,0.8C45.5,69.2,45.2,69.5,44.8,69.4L44.8,69.4z"/>
		<path class="st5" d="M70.6,72.4c-0.6,3.2,0.5,6.4,1.7,8.8c-1-3.2-1.5-5.5-0.5-9.2L70.6,72.4L70.6,72.4z"/>
		<path class="st5" d="M62.9,74.4c-1.4,3-1.5,6.9-0.8,9.6c-0.3-3.5,0.3-6.9,2.3-10.4L62.9,74.4L62.9,74.4z"/>
		<path class="st5" d="M42.6,74.7c1.4,2.6,1.7,7.4,1.1,9.7c0.3-3-0.3-7.3-2.3-10.3L42.6,74.7L42.6,74.7z"/>
		<path class="st5" d="M75.7,72.3c-13.2,6.5-35.6,9.5-45.6,3.2l0,2.9C43.7,83.8,64.7,78.5,75.7,72.3L75.7,72.3z"/>
		<path class="st5" d="M51,74.8c1.2,3.2,1,9.1,1.5,12.1c-0.5-3,0-9.1,1.6-12.2L51,74.8L51,74.8z"/>
		<path class="st5" d="M75.4,71.3c-0.8,2.5-0.2,4.5,0.9,6.2c-0.9-2.3-1-4.9,0.2-7.8L75.4,71.3L75.4,71.3z"/>
		<polygon class="st5" points="74.1,81.9 63.2,73.5 72.2,82.8 74.1,81.9 		"/>
		<polygon class="st5" points="75.6,79.5 66.4,72.9 68.2,72.7 75.6,79.5 		"/>
		<polygon class="st5" points="72.1,82.4 71.3,82.8 65.9,80.2 72.1,82.4 		"/>
		<path class="st5" d="M79,79.7c-4.5,0.5-8.6,3.5-12,6.4l2.5,1.4C67.3,85,73.4,81.3,79,79.7L79,79.7z"/>
		<path class="st5" d="M70.9,86.6c1.6-2.5,6.7-5,10.8-6c0.2,0.1,0.4,0.3,0.6,0.6C76.5,81,70.3,86.8,70.9,86.6L70.9,86.6z"/>
		<path class="st5" d="M71.7,87.3c1.6-2.5,6.1-5.6,10.1-6.7c0.2,0.1,1.1,0.9,1.3,1.2C77.2,81.6,71.1,87.5,71.7,87.3L71.7,87.3z"/>
		<path class="st7" d="M19.3,34.4c0.2,0,0.2,0.1,0.5,0.5c0.3,0.4,0.1,0.7,0.1,1c0,0.1,0,0.5-0.1,1c0,0.2,0,0.7,0,1.5
			c0,1.2,0,1.9,0.1,2.2c0.1,0.9,0,0.9,0,1.1c0,0.5-0.1,0.9,0,1.8c0,0.3,0,0.3,0,0.5l0,0.5l-0.1,1.1v1.9c0,0.4-0.1,0.8-0.1,1.1l0,1.8
			v1.2c0,0.8,0,1.5,0,2.1c0,0.2,0,0.4,0,0.4l0,0.6v2.7l0,3.2v0.5l0,0.6c0,1.1,0,1.7,0.1,1.7c0.1,0.1,0.5,0.1,1.4,0.1
			c0.4,0,0.8,0.1,1.2,0.2c0.6,0.1,0.9,0.1,0.9,0.2c0,0,0.1,0.4,0.2,0.9c0.3,0.4,0.5,0.7,0.5,0.9c0,0.7-0.6,1.1-1.9,1.1
			c-0.2,0-0.7,0-1.3-0.1c-0.1,0-0.2,0-0.3,0c-0.5,0-0.7,0.2-0.7,0.6c0,2.4,0,3.8,0.1,4.2c0.1,0.5,0.1,0.7,0.1,0.7l0,1
			c0.2,0.6,0.3,1,0.3,1.3c0,0.6-0.1,1-0.3,1.4c-0.3,0.5-0.6,0.8-0.8,0.8c-0.3,0-0.6-0.3-0.9-0.8c-0.2-0.3-0.3-0.7-0.3-1.1
			c0-0.3,0-0.6,0-0.6c0-0.2,0-0.3,0-0.3c0,0,0-0.2,0.1-0.5c0-0.3,0-1.8,0-4.4v-1.6v-0.4c0-0.2-0.1-0.4-0.3-0.4
			c-0.2-0.1-0.6-0.1-1.2-0.1c-0.1,0-0.3,0-0.8,0c-0.3,0-0.8,0-1.5,0c-0.8,0-1.4,0-1.8,0c-0.5,0-0.8,0-1.1,0c-0.5,0-0.9,0.1-1.1,0.2
			c-0.1,0.1-0.2,0.7-0.2,1.9c0,0.5,0,0.8,0.1,1c0,0.2,0.2,0.5,0.4,0.9c0.1,0.2,0.1,0.4,0.1,0.6v0.2c0,0.6-0.1,1.1-0.4,1.5
			c-0.3,0.4-0.7,0.7-1.1,0.7c-0.4,0-0.7-0.2-0.8-0.7c-0.1-0.4-0.2-0.7-0.2-0.9l0-0.8v-0.6c0.1-1.5,0.2-2.4,0.2-2.8
			c0-0.8-0.2-1.2-0.5-1.2c0,0-0.1,0-0.3,0.1c-0.1,0-0.3,0.1-0.5,0.1c0,0-1.4,0-1.8,0C4.8,67,4.4,67,3.9,67l-1.1,0.1H2.5
			c-0.3,0-0.5,0-0.6,0c-0.1,0-0.3-0.1-0.5-0.3C1.2,66.6,1,66.5,1,66.3c0-0.1-0.1-0.4-0.1-0.9c0.6-0.6,1-0.9,1.2-0.8l0.9,0.1
			c0.4-0.1,0.7,0.1,1,0.1c0.4,0,0.6-0.1,1.1,0c0.3,0,0.6,0,0.6,0l0.8-0.1l1.1-0.1c0.4-0.1,0.7-0.2,0.8-0.2c0.1-0.1,0.1-0.2,0.1-0.3
			l0-0.6v-2.1L8.2,59c0-1.7-0.1-2.5-0.1-2.6c0-0.1,0-0.8-0.1-1.1c-0.1-0.3-0.1-0.6-0.1-0.9c0-0.2,0-0.7,0.1-1.5c0-0.3,0-0.6,0-0.9
			c0-0.1,0-0.4,0-0.9c0-0.3,0-1.3,0-2.8c0-0.8,0-1.3-0.1-1.7c0-0.3,0-0.5,0-0.5c0-0.6,0.1-1,0.2-1.4c0.2-0.4,0.3-0.5,0.3-0.5l0.8,0
			c0.1,0,0.4,0.2,0.8,0.6c0.3,0.3,0.4,0.6,0.4,0.9c0,0.6-0.1,1.5-0.3,2.6c-0.2,1.1-0.3,3.3-0.3,6.6c0,0.4,0,0.9,0,1.4
			c0.1,2,0.1,3.6,0.1,4.6c0,0.1,0,0.7,0.1,1.7l0,1c0,0.2,0.1,0.3,0.4,0.3l0.5,0c4.2-0.2,6.5-0.3,7-0.5c0.2,0,0.3-0.2,0.3-0.5
			c0-0.3,0-1.3,0-3.1c0-0.2,0-1,0-2.3c0-1.7-0.1-3.6-0.1-5.6c0-1.4,0-4.1,0.1-8L18,36.8c0-0.6,0.1-1.2,0.3-1.7
			c0.2-0.5,0.3-0.7,0.3-0.7l0.4,0c0,0,0.1,0,0.1,0C19.2,34.4,19.3,34.4,19.3,34.4L19.3,34.4z"/>
		<path class="st7" d="M19.2,77.2c-0.4,0-0.8-0.3-1.2-1l0,0c-0.2-0.3-0.3-0.8-0.3-1.3c0-0.4,0-0.5,0-0.5l0,0
			c-0.1-0.3-0.1-0.3-0.1-0.4c0-0.1,0-0.2,0.1-0.6c0-0.3,0-1.2,0-4.3v-1.9c0-0.1,0-0.1-0.1-0.1c-0.1,0-0.4-0.1-1.1-0.1h-2.2
			c-0.8,0-1.4,0-1.8,0c-0.5,0-0.8,0-1.1,0c-0.5,0-0.7,0.1-0.9,0.1c0,0.1-0.1,0.5-0.1,1.7c0,0.6,0,0.8,0.1,1c0,0.1,0.1,0.3,0.3,0.8
			l0,0c0.1,0.3,0.2,0.5,0.2,0.8v0.2c0,0.7-0.2,1.2-0.5,1.7C10.2,73.8,9.7,74,9.2,74c-0.4,0-0.9-0.2-1.2-1c-0.1-0.4-0.2-0.8-0.2-1
			l0,0l0-0.7l0-0.6C8,69.1,8,68.2,8,67.9c0-0.6-0.1-0.8-0.1-0.9c0,0-0.1,0-0.1,0l0,0c-0.2,0.1-0.4,0.1-0.6,0.1h0c0,0-0.4,0-0.9,0
			c-0.5,0-0.8,0-0.9,0c-0.5,0.1-1,0.1-1.4,0.1l-1.2,0.1H2.5c-0.2,0-0.5,0-0.6,0h0l0,0c-0.1,0-0.3-0.1-0.6-0.4
			c-0.3-0.2-0.5-0.4-0.5-0.6c0-0.1-0.1-0.2-0.1-1l0-0.2l0.1-0.1c0.8-0.8,1.1-0.9,1.4-0.9c0,0,0,0,0,0l0.9,0.1c0.1,0,0.2,0,0.3,0
			c0.2,0,0.4,0,0.5,0.1c0.1,0,0.1,0,0.2,0c0.1,0,0.2,0,0.3,0c0.1,0,0.3,0,0.5,0c0.1,0,0.2,0,0.4,0l0,0c0,0,0.1,0,0.2,0
			c0.1,0,0.2,0,0.3,0c0,0,0.1,0,0.1,0l0.8-0.1l1-0.1C7.8,64.1,7.9,64,8,64c0,0,0,0,0,0l0,0l0-0.6v-2.1L7.9,59c0-2-0.1-2.4-0.1-2.5
			c0-0.1,0-0.1,0-0.3c0-0.2,0-0.6-0.1-0.8c-0.1-0.3-0.1-0.7-0.1-0.9c0-0.2,0-0.7,0.1-1.5c0-0.3,0-0.5,0-0.8v-3.6
			c0-0.7,0-1.3-0.1-1.6l0,0c0-0.4,0-0.5,0-0.6c0-0.6,0.1-1.1,0.3-1.5c0.2-0.4,0.4-0.6,0.5-0.6l0.1,0l0.9,0l0,0c0.1,0,0.4,0.1,1,0.7
			l0,0c0.3,0.3,0.5,0.7,0.5,1.2c0,0.6-0.1,1.5-0.3,2.7c-0.2,1.1-0.3,3.3-0.3,6.5c0,0.4,0,0.9,0,1.4c0.1,2,0.1,3.6,0.1,4.6
			c0,0.1,0,0.3,0.1,1.7l0,0l0,1c0,0,0,0,0,0l0,0l0.5,0c5.2-0.2,6.6-0.4,6.9-0.5l0,0c0,0,0-0.1,0.1-0.2c0-0.2,0-0.9,0-3.1
			c0-0.2,0-1,0-2.3c0-1.7-0.1-3.6-0.1-5.6c0-1.4,0-4.1,0.1-8l-0.1-7.5c0-0.7,0.1-1.3,0.3-1.8c0.2-0.6,0.4-0.9,0.7-0.9c0,0,0,0,0.1,0
			l0.3,0c0,0,0,0,0,0c0.1-0.1,0.2-0.1,0.3-0.1c0,0,0.1,0,0.1,0c0.3,0,0.4,0.2,0.5,0.3c0,0.1,0.1,0.2,0.2,0.3c0.3,0.4,0.2,0.8,0.2,1
			c0,0.1,0,0.2,0,0.2c0,0.1,0,0.3-0.1,1.1c0,0.2,0,0.7,0,1.4c0,1.4,0,2,0.1,2.2c0.1,0.6,0.1,0.9,0,1.1c0,0,0,0.1,0,0.1
			c0,0.2,0,0.3,0,0.5c0,0.3,0,0.7,0,1.3c0,0.2,0,0.3,0,0.3c0,0.1,0,0.1,0,0.1l0.1,0.5l-0.1,1.1v1.9l0,0c0,0.4-0.1,0.7-0.1,1.1l0,1.8
			v1.2c0,0.8,0,1.5,0,2.1c0,0.2,0,0.4,0,0.4l0,0.6v2.7l0,3.2v0.5l0,0.6c0,0.9,0,1.3,0,1.4c0.1,0,0.3,0,0.6,0c0.2,0,0.3,0,0.5,0h0
			c0.4,0,0.8,0.1,1.3,0.2c0.9,0.1,1,0.2,1.1,0.3l0,0c0.1,0.1,0.2,0.2,0.2,1.1c0.4,0.6,0.5,0.8,0.5,1c0,0.7-0.4,1.5-2.2,1.5
			c-0.3,0-0.7,0-1.4-0.1l0,0c-0.1,0-0.1,0-0.2,0c-0.4,0-0.4,0.2-0.4,0.3c0,3,0.1,3.9,0.1,4.1c0.1,0.7,0.1,0.7,0.1,0.8l0,0l0,1
			c0.3,0.8,0.3,1.1,0.3,1.3c0,0.6-0.1,1.1-0.4,1.6C19.9,76.9,19.6,77.2,19.2,77.2L19.2,77.2z M18.5,75.9L18.5,75.9
			c0.4,0.6,0.6,0.6,0.6,0.6c0,0,0.2,0,0.5-0.6l0,0c0.2-0.3,0.3-0.7,0.3-1.2c0-0.1,0-0.3-0.3-1.1l0-0.1l0-1.1c0-0.1-0.1-0.5-0.1-0.7
			c0-0.3-0.1-1-0.1-4.2c0-0.6,0.4-1,1.1-1c0.1,0,0.2,0,0.3,0c0.6,0.1,1,0.1,1.3,0.1c1.5,0,1.6-0.6,1.6-0.8c0,0-0.1-0.2-0.4-0.7
			l0-0.1l0-0.1c0-0.4-0.1-0.6-0.1-0.7c-0.1,0-0.3-0.1-0.7-0.1l0,0C22,64.1,21.6,64,21.3,64c-0.2,0-0.4,0-0.5,0c-0.9,0-1,0-1.1-0.2
			c-0.1-0.1-0.2-0.2-0.2-2l0-0.6v-0.5l0-3.2v-2.7l0-0.6c0-0.1,0-0.3,0-0.4c0-0.6,0-1.3,0-2.1v-1.2l0-1.8c0-0.4,0-0.8,0.1-1.2l0-1.9
			l0.1-1.1l0-0.5c0-0.1,0-0.2,0-0.3c0-0.1,0-0.1,0-0.2c0-0.6,0-1,0-1.4c0-0.2,0-0.3,0-0.5c0-0.1,0-0.1,0-0.2c0-0.1,0-0.3,0-0.9
			c0-0.3-0.1-1.1-0.1-2.3c0-0.8,0-1.3,0-1.5c0.1-0.7,0.1-0.9,0.1-1c0-0.1,0-0.2,0-0.3c0-0.2,0.1-0.3,0-0.5c-0.1-0.2-0.2-0.3-0.3-0.4
			c-0.1,0-0.2,0.1-0.2,0.1h0l-0.2,0c0,0.1-0.1,0.2-0.2,0.4c-0.2,0.5-0.3,1-0.3,1.6l0.1,7.5l0,0c-0.1,3.9-0.1,6.6-0.1,8
			c0,2,0,3.9,0.1,5.6c0,1.3,0,2.1,0,2.3c0,1.8,0,2.8,0,3.1c0,0.6-0.3,0.8-0.5,0.8c-0.3,0.1-1.3,0.2-7,0.5l-0.5,0c0,0,0,0-0.1,0
			c-0.4,0-0.7-0.2-0.7-0.6l0,0l0-1c-0.1-1-0.1-1.6-0.1-1.7c0-1,0-2.5-0.1-4.5c0-0.5,0-1,0-1.4c0-3.3,0.1-5.5,0.3-6.6
			c0.2-1.1,0.3-2,0.3-2.6c0-0.3-0.1-0.5-0.3-0.7c-0.4-0.4-0.6-0.5-0.7-0.5l-0.6,0c0,0-0.1,0.1-0.1,0.3c-0.1,0.3-0.2,0.8-0.2,1.3
			c0,0,0,0.1,0,0.5c0.1,0.4,0.1,0.9,0.1,1.7v3.6c0,0.3,0,0.6,0,0.9l0,0c0,0.8-0.1,1.3-0.1,1.4c0,0.2,0,0.5,0.1,0.8
			c0.1,0.2,0.1,0.6,0.1,0.9c0,0.1,0,0.2,0,0.2c0,0.1,0,0.3,0.1,2.7l0.1,2.3v2.1l0,0.6c0,0.4-0.1,0.6-0.3,0.6
			c-0.1,0.1-0.3,0.1-0.9,0.3l0,0L6.5,65l-0.8,0.1c0,0,0,0,0,0c-0.1,0-0.2,0-0.4,0c-0.1,0-0.2,0-0.3,0c-0.1,0-0.2,0-0.3,0
			c-0.1,0-0.3,0-0.4,0c-0.1,0-0.3,0-0.4,0c-0.1,0-0.2,0-0.3-0.1c-0.1,0-0.2-0.1-0.4-0.1c-0.1,0-0.1,0-0.2,0L3,65L2,65
			c-0.1,0-0.3,0.1-0.8,0.6c0,0.4,0.1,0.6,0.1,0.6l0,0c0,0,0,0.1,0.3,0.3c0.2,0.2,0.3,0.2,0.4,0.3c0.1,0,0.2,0,0.5,0l0,0h0.3l1.2-0.1
			c0.4,0,0.9,0,1.3-0.1l0,0c0.2,0,0.5,0,1,0c0.4,0,0.8,0,0.9,0c0.2,0,0.4,0,0.4,0c0.3-0.1,0.3-0.1,0.4-0.1l0,0
			c0.8,0,0.8,1.2,0.8,1.5c0,0.3-0.1,1.2-0.2,2.8l0,0.6l0,0.7c0,0.2,0.1,0.5,0.2,0.8c0.1,0.4,0.3,0.5,0.5,0.5c0.3,0,0.6-0.2,0.8-0.5
			c0.3-0.4,0.4-0.8,0.4-1.3v0v-0.2c0-0.2,0-0.3-0.1-0.5c-0.2-0.5-0.4-0.8-0.4-1c0-0.2-0.1-0.6-0.1-1.1c0-1.9,0.1-2.1,0.3-2.2
			c0.3-0.2,0.7-0.3,1.3-0.3c0.2,0,0.6,0,1.1,0c0.4,0,1,0,1.8,0h2.2c0.7,0,1.1,0,1.3,0.1c0.4,0.1,0.6,0.4,0.6,0.8v1.9
			c0,2.7,0,4.1-0.1,4.4l0,0l0,0c-0.1,0.3-0.1,0.4-0.1,0.5c0,0,0,0.1,0,0.2c0,0.1,0,0.2,0,0.7C18.3,75.3,18.4,75.6,18.5,75.9
			L18.5,75.9z"/>
		<path class="st7" d="M88.4,60.4c-1.6,0-3.2,0.4-5,1.1c-0.7,0.3-1.2,0.6-1.7,1c-0.5,0.4-0.7,0.8-0.7,1.1c0,0.4,0.2,0.7,0.6,1
			c0.4,0.2,0.8,0.4,1.3,0.5c0.4,0.1,1.8,0.4,4,0.8c1.5,0.3,2.6,0.7,3.2,1.1c0.7,0.4,1,1,1,1.8c0,0.7-0.3,1.4-0.9,2.1
			c-0.7,0.9-2,1.7-3.7,2.4c-1.7,0.7-3.2,1-4.5,1c-0.7,0-1.3-0.2-1.8-0.6c-0.3-0.3-0.5-0.5-0.6-0.5c-0.1-0.1-0.1-0.2-0.2-0.4
			c-0.1-0.3-0.2-0.7-0.2-0.9c0-0.3,0.2-0.6,0.6-0.9c0.4-0.3,0.8-0.4,1.2-0.4c0.2,0,0.5,0.1,0.8,0.3c0.3,0.2,0.4,0.4,0.4,0.6l0,0.7
			c0,0.1,0.2,0.2,0.6,0.3c0.2,0,0.3,0,0.4,0c0.1,0,0.2,0,0.2,0c0.1,0,0.2,0,0.3-0.1c0.1,0,0.7-0.2,1.8-0.4c0.8-0.2,1.3-0.4,1.5-0.6
			c0.2-0.2,0.4-0.3,0.7-0.5c0.3-0.2,0.6-0.4,0.8-0.7c0.2-0.3,0.3-0.7,0.3-1c0-0.9-1-1.5-3-1.7c-2.6-0.3-4.2-0.6-4.8-0.9
			c-1.5-0.6-2.2-1.3-2.2-2.3c0-0.5,0.3-1.1,0.8-1.7c1-1.1,2.5-2.1,4.5-2.8c2-0.8,3.9-1.1,5.7-1.1c1,0,1.6,0.2,2,0.6
			c0.3,0.4,0.5,0.8,0.5,1.3c0,0.6-0.2,1-0.6,1.3c-0.3,0.2-0.6,0.3-0.8,0.3c-0.2,0-0.5-0.1-0.7-0.2c-0.2-0.2-0.3-0.3-0.3-0.5
			c0,0,0-0.1,0-0.1l0.1-0.5C89.8,60.5,89.3,60.4,88.4,60.4L88.4,60.4z"/>
		<path class="st7" d="M95.3,52.2c0.2,0,0.4,0.1,0.6,0.3c0.1,0.2,0.2,0.5,0.2,1c0,0.6,0,1.3-0.1,2.2l0,0.5c-0.2,1.7-0.4,2.6-0.4,2.8
			c-0.1,0.2-0.1,0.2-0.1,0.3c0,0.1,0.1,0.2,0.3,0.3c0.2,0,0.9,0.1,2.2,0.1c1.8,0.1,2.8,0.2,2.9,0.3c0.1,0,0.2,0.2,0.3,0.3
			c0.1,0.2,0.1,0.3,0.1,0.4c0,0.3-0.1,0.8-0.4,1.4c-0.1,0.3-0.4,0.5-0.7,0.5c-0.2,0-0.5,0-1-0.1c-0.2,0-0.8-0.1-1.9-0.1
			c-1.1-0.1-1.8-0.1-2.1-0.1c-0.3,0-0.4,0.2-0.5,0.5c0,0,0,0.1-0.1,0.3c-0.2,0.6-0.3,1.1-0.3,1.5c0,0,0,1.1,0.1,3.4
			c0,0.5,0.1,1.2,0.3,1.9c0.2,0.8,0.4,1.4,0.7,1.9c0.3,0.5,0.6,0.8,0.9,0.8c0.5,0,1.1-0.5,1.7-1.6c0.6-1.1,1.2-2.5,1.7-4.4
			c0.1-0.4,0.2-0.7,0.2-0.8c0.1-0.2,0.1-0.3,0.1-0.4c0-0.4,0.1-0.6,0.2-0.6c0.1,0,0.2,0.1,0.2,0.4l0,0.9c0,0,0,0.2,0.1,0.4
			c0.1,0.4,0.1,0.8,0.1,1.1c0,0.6-0.2,1.4-0.5,2.4c-0.3,0.9-0.6,1.7-0.8,2.1c-0.2,0.5-0.4,0.8-0.7,1.1c-0.8,1-1.2,1.5-1.3,1.5
			c-0.5,0.4-0.9,0.6-1.3,0.6c-1.1,0-1.9-1-2.6-3c-0.5-1.6-0.8-3.6-0.8-5.9c0-0.2,0-1.1,0.1-2.5v-0.6c0-0.2,0-0.3,0-0.5
			c0-0.2-0.1-0.3-0.2-0.3c-0.1,0-0.2,0-0.3,0c-0.1,0-0.3,0-0.6,0.1c-0.5,0.1-1,0.1-1.4,0.3c-0.2,0.1-0.5,0.1-0.6,0.1
			c-0.4,0-0.6-0.3-0.6-0.8c0-0.3,0-0.4,0.1-0.5c0-0.1,0.2-0.2,0.4-0.4l0.1-0.2c0.1-0.3,0.3-0.6,0.7-0.7c0.6-0.2,1.1-0.3,1.5-0.3
			c0,0,0.1,0,0.2,0.1l0.2-0.1c0.5-0.1,0.8-0.1,0.9-0.1c0.1-0.3,0.1-0.5,0.2-0.6l0.4-2.4c0.5-2.5,0.9-3.8,0.9-4
			C94.8,52.3,95,52.2,95.3,52.2L95.3,52.2z"/>
		<path class="st7" d="M109.8,65.6c0.1,0,0.2,0.1,0.2,0.2c0,0.2,0,0.3,0,0.5l-0.1,0.4c-0.3,1.5-0.5,2.6-0.8,3.3
			c-0.2,0.7-0.6,1.3-1,1.9c-1.2,1.6-2.6,2.3-4.4,2.3c-1.3,0-2.3-0.5-3.1-1.6c-0.7-1-1.1-2.2-1.1-3.6c0-2.6,0.6-5.2,1.8-7.6
			c0.5-1.1,1.2-2,1.8-2.7c0.7-0.7,1.3-1,1.8-1c0.1,0,0.3,0.1,0.8,0.2c0.4,0.1,0.7,0.2,0.8,0.3c0.5,0.3,0.8,0.9,0.8,2
			c0,1.2-0.2,2.5-0.7,3.9c-0.4,1.4-1.1,2.6-1.9,3.8c-0.5,0.7-0.9,1.3-1.2,1.6c-0.3,0.3-0.7,0.6-1.2,1c-0.3,0.2-0.4,0.4-0.4,0.5
			c0,0.3,0.2,0.5,0.7,0.8c0.5,0.2,0.9,0.4,1.5,0.4c1.1,0,2.2-0.6,3.1-1.7c0.3-0.3,0.6-0.9,1.1-1.9c0.4-0.9,0.8-1.7,1-2.4
			C109.5,65.8,109.6,65.6,109.8,65.6L109.8,65.6z M104.9,59.9L104.9,59.9c-0.4,0-1,0.5-1.7,1.4c-0.4,0.5-0.8,1.3-1.1,2.2
			c-0.1,0.2-0.2,0.5-0.3,0.7c-0.2,0.6-0.4,1-0.4,1.4c-0.1,0.4-0.1,1.2-0.1,2.4l0,0.3c0,0.3,0.1,0.4,0.2,0.4c0.1,0,0.5-0.3,1.1-0.8
			c0.6-0.5,1-0.9,1.2-1.2c0.6-0.8,1.1-1.7,1.5-2.6c0.4-0.9,0.6-1.8,0.6-2.6C105.8,60.5,105.5,59.9,104.9,59.9L104.9,59.9z"/>
		<path class="st7" d="M119,62c0.1,0,0.2,0.3,0.3,0.8c0.1,0.5,0.2,1.1,0.2,1.8c0,1.2-0.3,2.6-1,4.3c-0.6,1.7-1.4,3-2.2,4
			c-0.3,0.4-0.7,0.7-1.2,1c-0.5,0.3-0.9,0.4-1.3,0.4c-0.6,0-1.1-0.2-1.7-0.7c-0.6-0.5-1.1-1.1-1.4-1.8c-0.9-2-1.4-4.3-1.4-6.9
			c0-3.4,0.3-6.5,0.9-9.6c1-5.3,2.1-8,3.3-8c0.1,0,0.4,0,0.8,0.1c0.4,0.1,0.7,0.2,0.8,0.2c0.3,0.1,0.6,0.7,1,1.6
			c0.5,1.2,0.7,2.8,0.7,4.8c0,2.6-0.4,5.1-1.3,7.6c-0.5,1.5-1.3,2.9-2.3,4.3c-0.6,0.8-1.1,1.3-1.4,1.5c-0.3,0.2-0.5,0.4-0.5,0.6
			c0,0.3,0.1,0.7,0.3,1.3c0.2,0.8,0.6,1.4,1,1.8c0.4,0.4,0.8,0.7,1.3,0.7c0.7,0,1.5-0.5,2.3-1.6c0.3-0.4,0.5-0.8,0.7-1.2
			c0.2-0.4,0.6-1.7,1.2-3.8c0.4-1.4,0.7-2.2,0.7-2.5C118.8,62.3,118.9,62.1,119,62L119,62z M113.6,49.5L113.6,49.5
			c-0.6,0.1-1.2,1.6-1.9,4.4c-0.7,2.7-1,5.9-1.1,9.4v0.5c0,0.3,0,0.6,0,0.7c0,0.1,0.1,0.4,0.3,0.7l0.4-0.3c0.2-0.1,0.4-0.1,0.4-0.2
			c0,0,0.1-0.2,0.2-0.5c0-0.1,0.5-0.9,1.5-2.2c0.5-0.8,0.9-1.9,1.3-3.4c0.4-1.5,0.6-2.9,0.6-4.2c0-1.5-0.2-2.7-0.6-3.7
			C114.3,49.9,113.9,49.5,113.6,49.5L113.6,49.5z"/>
	</g>
	<path class="st8" d="M39.2,52h1.9l-0.9-14.6h-2.4l-2.6,7c-0.3,0.9-0.6,1.8-0.9,2.6c-0.3,0.8-0.5,1.6-0.7,2.3h0
		c-0.2-0.8-0.4-1.5-0.7-2.4c-0.2-0.8-0.5-1.7-0.8-2.6l-2.5-7h-2.4l-1,14.6H28l0.4-6.2c0-0.7,0.1-1.5,0.1-2.2c0-0.8,0.1-1.5,0.1-2.2
		c0-0.7,0-1.4,0.1-2h0c0.2,0.9,0.4,1.8,0.7,2.7c0.3,0.9,0.6,1.9,0.9,3l2.4,6.9h1.4l2.6-7.1c0.4-1,0.7-2,1-2.9
		c0.3-0.9,0.6-1.8,0.8-2.6h0c0,0.4,0,0.9,0,1.5c0,0.5,0,1.1,0.1,1.6c0,0.6,0,1.1,0.1,1.6c0,0.5,0.1,1.1,0.1,1.6L39.2,52L39.2,52z
		 M51.4,45.6c0-0.5-0.1-1-0.2-1.6c-0.1-0.5-0.3-1-0.6-1.4c-0.3-0.4-0.7-0.7-1.2-1c-0.5-0.2-1.2-0.4-2-0.4c-0.4,0-0.9,0-1.3,0.1
		c-0.4,0.1-0.8,0.2-1.2,0.3c-0.4,0.1-0.7,0.3-1,0.5l0.4,1.3c0.2-0.2,0.5-0.3,0.8-0.4c0.3-0.1,0.6-0.2,0.9-0.3c0.3-0.1,0.7-0.1,1-0.1
		c0.4,0,0.8,0.1,1.1,0.2c0.3,0.1,0.5,0.3,0.7,0.4c0.2,0.2,0.3,0.4,0.4,0.6c0.1,0.2,0.1,0.4,0.2,0.6c0,0.2,0,0.4,0,0.6v0.2
		c-1.3,0-2.5,0.1-3.4,0.4c-0.9,0.3-1.6,0.7-2.1,1.3c-0.5,0.6-0.7,1.3-0.7,2.1c0,0.4,0.1,0.8,0.2,1.1c0.1,0.4,0.3,0.7,0.6,1
		c0.3,0.3,0.6,0.5,1,0.7c0.4,0.2,0.9,0.3,1.4,0.3c0.5,0,1-0.1,1.4-0.2c0.4-0.1,0.8-0.3,1.1-0.6c0.3-0.2,0.6-0.5,0.7-0.8h0.1l0.2,1.3
		h1.7c-0.1-0.4-0.1-0.8-0.1-1.2c0-0.4,0-0.9,0-1.3V45.6L51.4,45.6z M49.6,48.5c0,0.1,0,0.2,0,0.3c0,0.1,0,0.2-0.1,0.3
		c-0.1,0.3-0.3,0.6-0.5,0.8c-0.2,0.3-0.5,0.5-0.9,0.6c-0.3,0.2-0.8,0.3-1.2,0.3c-0.3,0-0.6-0.1-0.9-0.2c-0.3-0.1-0.5-0.3-0.6-0.6
		c-0.2-0.3-0.2-0.6-0.2-1c0-0.4,0.1-0.7,0.3-1c0.2-0.3,0.4-0.5,0.7-0.7c0.3-0.2,0.6-0.3,1-0.4c0.4-0.1,0.8-0.2,1.2-0.2
		c0.4,0,0.8,0,1.3,0V48.5L49.6,48.5z M54.5,52h1.9v-5.6c0-0.2,0-0.3,0-0.4c0-0.2,0-0.3,0.1-0.4c0.1-0.5,0.2-0.9,0.5-1.3
		c0.2-0.4,0.5-0.6,0.9-0.9c0.3-0.2,0.7-0.3,1.2-0.3c0.1,0,0.2,0,0.3,0c0.1,0,0.2,0,0.3,0v-1.8c-0.1,0-0.2,0-0.3,0
		c-0.1,0-0.2,0-0.3,0c-0.4,0-0.8,0.1-1.2,0.3c-0.4,0.2-0.7,0.5-1,0.8c-0.3,0.3-0.5,0.7-0.7,1.2h-0.1L56,41.5h-1.7
		c0,0.5,0.1,1,0.1,1.5c0,0.5,0,1.1,0,1.7V52L54.5,52z M68.8,45.6c0-0.5-0.1-1-0.2-1.6c-0.1-0.5-0.3-1-0.6-1.4
		c-0.3-0.4-0.7-0.7-1.2-1c-0.5-0.2-1.2-0.4-2-0.4c-0.4,0-0.9,0-1.3,0.1c-0.4,0.1-0.8,0.2-1.2,0.3c-0.4,0.1-0.7,0.3-1,0.5l0.4,1.3
		c0.2-0.2,0.5-0.3,0.8-0.4c0.3-0.1,0.6-0.2,0.9-0.3c0.3-0.1,0.7-0.1,1-0.1c0.4,0,0.8,0.1,1.1,0.2c0.3,0.1,0.5,0.3,0.7,0.4
		c0.2,0.2,0.3,0.4,0.4,0.6c0.1,0.2,0.1,0.4,0.2,0.6c0,0.2,0,0.4,0,0.6v0.2c-1.3,0-2.5,0.1-3.4,0.4c-0.9,0.3-1.6,0.7-2.1,1.3
		c-0.5,0.6-0.7,1.3-0.7,2.1c0,0.4,0.1,0.8,0.2,1.1c0.1,0.4,0.3,0.7,0.6,1c0.3,0.3,0.6,0.5,1,0.7c0.4,0.2,0.9,0.3,1.4,0.3
		c0.5,0,1-0.1,1.4-0.2c0.4-0.1,0.8-0.3,1.1-0.6c0.3-0.2,0.6-0.5,0.7-0.8h0.1l0.2,1.3h1.7c-0.1-0.4-0.1-0.8-0.1-1.2
		c0-0.4,0-0.9,0-1.3V45.6L68.8,45.6z M66.9,48.5c0,0.1,0,0.2,0,0.3c0,0.1,0,0.2-0.1,0.3c-0.1,0.3-0.3,0.6-0.5,0.8
		c-0.2,0.3-0.5,0.5-0.9,0.6c-0.3,0.2-0.8,0.3-1.2,0.3c-0.3,0-0.6-0.1-0.9-0.2c-0.3-0.1-0.5-0.3-0.6-0.6c-0.2-0.3-0.2-0.6-0.2-1
		c0-0.4,0.1-0.7,0.3-1c0.2-0.3,0.4-0.5,0.7-0.7c0.3-0.2,0.6-0.3,1-0.4c0.4-0.1,0.8-0.2,1.2-0.2c0.4,0,0.8,0,1.3,0V48.5L66.9,48.5z
		 M79,50.2c-0.3,0.1-0.6,0.2-1,0.3c-0.4,0.1-0.8,0.2-1.4,0.2c-0.5,0-1-0.1-1.4-0.3c-0.4-0.2-0.8-0.4-1.1-0.8
		c-0.3-0.3-0.6-0.7-0.8-1.2c-0.2-0.5-0.3-1-0.3-1.6c0-0.5,0.1-1.1,0.2-1.5c0.2-0.5,0.4-0.9,0.7-1.3c0.3-0.4,0.7-0.6,1.2-0.9
		c0.5-0.2,1-0.3,1.6-0.3c0.5,0,1,0.1,1.3,0.2c0.4,0.1,0.7,0.2,0.9,0.3l0.4-1.4c-0.2-0.1-0.4-0.2-0.7-0.3c-0.3-0.1-0.6-0.2-0.9-0.2
		c-0.3-0.1-0.7-0.1-1.1-0.1c-0.9,0-1.6,0.1-2.3,0.4c-0.7,0.3-1.3,0.7-1.8,1.2c-0.5,0.5-0.9,1.1-1.1,1.8c-0.3,0.7-0.4,1.4-0.4,2.2
		c0,0.8,0.1,1.5,0.4,2.2c0.2,0.7,0.6,1.2,1.1,1.7c0.5,0.5,1,0.8,1.6,1.1c0.6,0.3,1.4,0.4,2.1,0.4c0.5,0,0.9,0,1.3-0.1
		c0.4-0.1,0.7-0.1,1-0.2c0.3-0.1,0.5-0.2,0.7-0.3L79,50.2L79,50.2z M88.9,45.6c0-0.5-0.1-1-0.2-1.6c-0.1-0.5-0.3-1-0.6-1.4
		c-0.3-0.4-0.7-0.7-1.2-1c-0.5-0.2-1.2-0.4-2-0.4c-0.4,0-0.9,0-1.3,0.1c-0.4,0.1-0.8,0.2-1.2,0.3c-0.4,0.1-0.7,0.3-1,0.5l0.4,1.3
		c0.2-0.2,0.5-0.3,0.8-0.4c0.3-0.1,0.6-0.2,0.9-0.3c0.3-0.1,0.7-0.1,1-0.1c0.4,0,0.8,0.1,1.1,0.2c0.3,0.1,0.5,0.3,0.7,0.4
		c0.2,0.2,0.3,0.4,0.4,0.6c0.1,0.2,0.1,0.4,0.2,0.6c0,0.2,0,0.4,0,0.6v0.2c-1.3,0-2.5,0.1-3.4,0.4c-0.9,0.3-1.6,0.7-2.1,1.3
		c-0.5,0.6-0.7,1.3-0.7,2.1c0,0.4,0.1,0.8,0.2,1.1c0.1,0.4,0.3,0.7,0.6,1c0.3,0.3,0.6,0.5,1,0.7c0.4,0.2,0.9,0.3,1.4,0.3
		c0.5,0,1-0.1,1.4-0.2c0.4-0.1,0.8-0.3,1.1-0.6c0.3-0.2,0.6-0.5,0.7-0.8h0.1l0.2,1.3H89c-0.1-0.4-0.1-0.8-0.1-1.2c0-0.4,0-0.9,0-1.3
		V45.6L88.9,45.6z M87,48.5c0,0.1,0,0.2,0,0.3c0,0.1,0,0.2-0.1,0.3c-0.1,0.3-0.3,0.6-0.5,0.8c-0.2,0.3-0.5,0.5-0.9,0.6
		c-0.3,0.2-0.8,0.3-1.2,0.3c-0.3,0-0.6-0.1-0.9-0.2c-0.3-0.1-0.5-0.3-0.6-0.6c-0.2-0.3-0.2-0.6-0.2-1c0-0.4,0.1-0.7,0.3-1
		c0.2-0.3,0.4-0.5,0.7-0.7c0.3-0.2,0.6-0.3,1-0.4c0.4-0.1,0.8-0.2,1.2-0.2c0.4,0,0.8,0,1.3,0V48.5L87,48.5z"/>
	<path class="st9" d="M74.3,92.9v-4.6h2c0.4,0,0.7,0,0.9,0.1c0.2,0.1,0.4,0.2,0.5,0.4c0.1,0.2,0.2,0.4,0.2,0.7
		c0,0.3-0.1,0.6-0.3,0.8c-0.2,0.2-0.5,0.4-1,0.4c0.2,0.1,0.3,0.2,0.4,0.2c0.2,0.2,0.3,0.4,0.5,0.6l0.8,1.3h-0.8L77,92
		c-0.2-0.3-0.3-0.5-0.4-0.6c-0.1-0.1-0.2-0.3-0.3-0.3c-0.1-0.1-0.2-0.1-0.3-0.1c-0.1,0-0.2,0-0.3,0h-0.7v2.1H74.3L74.3,92.9z
		 M74.9,90.3h1.3c0.3,0,0.5,0,0.7-0.1c0.2-0.1,0.3-0.2,0.4-0.3c0.1-0.1,0.1-0.3,0.1-0.4c0-0.2-0.1-0.4-0.2-0.5
		c-0.2-0.1-0.4-0.2-0.8-0.2h-1.5V90.3L74.9,90.3z M79.3,89v-0.7h0.6V89H79.3L79.3,89z M79.3,92.9v-3.3h0.6v3.3H79.3L79.3,92.9z
		 M80.9,91.2c0-0.6,0.2-1.1,0.5-1.4c0.3-0.2,0.6-0.4,1.1-0.4c0.5,0,0.8,0.2,1.1,0.5c0.3,0.3,0.4,0.7,0.4,1.2c0,0.4-0.1,0.8-0.2,1
		c-0.1,0.2-0.3,0.4-0.6,0.6C83,92.9,82.7,93,82.4,93c-0.5,0-0.8-0.1-1.1-0.5C81,92.2,80.9,91.8,80.9,91.2L80.9,91.2z M81.4,91.2
		c0,0.4,0.1,0.8,0.3,1c0.2,0.2,0.4,0.3,0.7,0.3c0.3,0,0.5-0.1,0.7-0.3c0.2-0.2,0.3-0.5,0.3-1c0-0.4-0.1-0.7-0.3-0.9
		c-0.2-0.2-0.4-0.3-0.7-0.3c-0.3,0-0.5,0.1-0.7,0.3C81.5,90.5,81.4,90.8,81.4,91.2L81.4,91.2z M89,92.9v-0.4
		c-0.2,0.3-0.5,0.5-0.9,0.5c-0.3,0-0.5-0.1-0.7-0.2c-0.2-0.1-0.4-0.4-0.5-0.6c-0.1-0.3-0.2-0.6-0.2-0.9c0-0.3,0.1-0.6,0.2-0.9
		c0.1-0.3,0.3-0.5,0.5-0.6c0.2-0.1,0.5-0.2,0.7-0.2c0.2,0,0.4,0,0.5,0.1c0.2,0.1,0.3,0.2,0.4,0.3v-1.7h0.6v4.6H89L89,92.9z
		 M87.2,91.3c0,0.4,0.1,0.7,0.3,1c0.2,0.2,0.4,0.3,0.6,0.3c0.2,0,0.5-0.1,0.6-0.3c0.2-0.2,0.3-0.5,0.3-0.9c0-0.5-0.1-0.8-0.3-1
		c-0.2-0.2-0.4-0.3-0.7-0.3c-0.3,0-0.5,0.1-0.6,0.3C87.3,90.5,87.2,90.8,87.2,91.3L87.2,91.3z M93.1,91.8l0.6,0.1
		c-0.1,0.3-0.3,0.6-0.5,0.8c-0.3,0.2-0.6,0.3-1,0.3c-0.5,0-0.9-0.2-1.2-0.5c-0.3-0.3-0.4-0.7-0.4-1.3c0-0.6,0.1-1,0.4-1.3
		c0.3-0.3,0.7-0.5,1.1-0.5c0.4,0,0.8,0.2,1.1,0.5c0.3,0.3,0.4,0.7,0.4,1.3c0,0,0,0.1,0,0.2h-2.5c0,0.4,0.1,0.6,0.3,0.8
		c0.2,0.2,0.4,0.3,0.7,0.3c0.2,0,0.4-0.1,0.5-0.2C92.9,92.3,93,92.1,93.1,91.8L93.1,91.8z M91.2,90.9h1.9c0-0.3-0.1-0.5-0.2-0.6
		c-0.2-0.2-0.4-0.3-0.7-0.3c-0.3,0-0.5,0.1-0.7,0.3C91.3,90.4,91.2,90.6,91.2,90.9L91.2,90.9z M96.3,91.6l0.6-0.1
		c0,0.4,0.1,0.6,0.2,0.7c0.1,0.1,0.3,0.2,0.5,0.2c0.2,0,0.3,0,0.4-0.1c0.1-0.1,0.2-0.2,0.2-0.3c0-0.1,0.1-0.3,0.1-0.6v-3.2h0.6v3.1
		c0,0.4,0,0.7-0.1,0.9c-0.1,0.2-0.2,0.4-0.4,0.5c-0.2,0.1-0.4,0.2-0.7,0.2c-0.4,0-0.7-0.1-0.9-0.3C96.4,92.4,96.3,92.1,96.3,91.6
		L96.3,91.6z M102.3,92.5c-0.2,0.2-0.4,0.3-0.6,0.4c-0.2,0.1-0.4,0.1-0.6,0.1c-0.4,0-0.6-0.1-0.8-0.3c-0.2-0.2-0.3-0.4-0.3-0.7
		c0-0.2,0-0.3,0.1-0.4c0.1-0.1,0.2-0.2,0.3-0.3c0.1-0.1,0.3-0.1,0.4-0.2c0.1,0,0.3-0.1,0.5-0.1c0.5-0.1,0.8-0.1,1-0.2
		c0-0.1,0-0.1,0-0.1c0-0.2-0.1-0.4-0.2-0.5c-0.1-0.1-0.4-0.2-0.6-0.2c-0.3,0-0.5,0-0.6,0.1c-0.1,0.1-0.2,0.3-0.3,0.5l-0.6-0.1
		c0.1-0.2,0.1-0.4,0.2-0.6c0.1-0.1,0.3-0.3,0.5-0.3c0.2-0.1,0.5-0.1,0.8-0.1c0.3,0,0.5,0,0.7,0.1c0.2,0.1,0.3,0.2,0.4,0.3
		c0.1,0.1,0.1,0.2,0.2,0.4c0,0.1,0,0.3,0,0.5v0.8c0,0.5,0,0.9,0,1c0,0.1,0.1,0.3,0.1,0.4h-0.6C102.4,92.8,102.3,92.7,102.3,92.5
		L102.3,92.5z M102.3,91.2c-0.2,0.1-0.5,0.2-0.9,0.2c-0.2,0-0.4,0.1-0.5,0.1c-0.1,0-0.2,0.1-0.2,0.2c-0.1,0.1-0.1,0.2-0.1,0.3
		c0,0.2,0.1,0.3,0.2,0.4c0.1,0.1,0.3,0.2,0.5,0.2c0.2,0,0.4,0,0.6-0.1c0.2-0.1,0.3-0.2,0.4-0.4c0.1-0.1,0.1-0.3,0.1-0.6V91.2
		L102.3,91.2z M104.1,92.9v-3.3h0.5v0.5c0.2-0.4,0.6-0.6,1.1-0.6c0.2,0,0.4,0,0.6,0.1c0.2,0.1,0.3,0.2,0.4,0.3
		c0.1,0.1,0.1,0.3,0.2,0.4c0,0.1,0,0.3,0,0.6v2.1h-0.6v-2c0-0.2,0-0.4-0.1-0.5c0-0.1-0.1-0.2-0.2-0.3c-0.1-0.1-0.2-0.1-0.4-0.1
		c-0.2,0-0.4,0.1-0.6,0.2c-0.2,0.2-0.3,0.4-0.3,0.9v1.8H104.1L104.1,92.9z M110.3,91.8l0.6,0.1c-0.1,0.3-0.3,0.6-0.5,0.8
		c-0.3,0.2-0.6,0.3-1,0.3c-0.5,0-0.9-0.2-1.2-0.5c-0.3-0.3-0.4-0.7-0.4-1.3c0-0.6,0.1-1,0.4-1.3c0.3-0.3,0.7-0.5,1.1-0.5
		c0.4,0,0.8,0.2,1.1,0.5c0.3,0.3,0.4,0.7,0.4,1.3c0,0,0,0.1,0,0.2h-2.5c0,0.4,0.1,0.6,0.3,0.8c0.2,0.2,0.4,0.3,0.7,0.3
		c0.2,0,0.4-0.1,0.5-0.2C110.1,92.3,110.3,92.1,110.3,91.8L110.3,91.8z M108.5,90.9h1.9c0-0.3-0.1-0.5-0.2-0.6
		c-0.2-0.2-0.4-0.3-0.7-0.3c-0.3,0-0.5,0.1-0.7,0.3C108.6,90.4,108.5,90.6,108.5,90.9L108.5,90.9z M112,89v-0.7h0.6V89H112L112,89z
		 M112,92.9v-3.3h0.6v3.3H112L112,92.9z M113.8,92.9v-3.3h0.5v0.5c0.1-0.2,0.3-0.4,0.4-0.5c0.1-0.1,0.2-0.1,0.4-0.1
		c0.2,0,0.4,0.1,0.6,0.2l-0.2,0.5c-0.1-0.1-0.3-0.1-0.4-0.1c-0.1,0-0.2,0-0.3,0.1c-0.1,0.1-0.2,0.2-0.2,0.3
		c-0.1,0.2-0.1,0.4-0.1,0.7v1.8H113.8L113.8,92.9z M116.1,91.2c0-0.6,0.2-1.1,0.5-1.4c0.3-0.2,0.6-0.4,1.1-0.4
		c0.5,0,0.8,0.2,1.1,0.5c0.3,0.3,0.4,0.7,0.4,1.2c0,0.4-0.1,0.8-0.2,1c-0.1,0.2-0.3,0.4-0.6,0.6c-0.2,0.1-0.5,0.2-0.8,0.2
		c-0.5,0-0.8-0.1-1.1-0.5C116.3,92.2,116.1,91.8,116.1,91.2L116.1,91.2z M116.7,91.2c0,0.4,0.1,0.8,0.3,1c0.2,0.2,0.4,0.3,0.7,0.3
		c0.3,0,0.5-0.1,0.7-0.3c0.2-0.2,0.3-0.5,0.3-1c0-0.4-0.1-0.7-0.3-0.9c-0.2-0.2-0.4-0.3-0.7-0.3c-0.3,0-0.5,0.1-0.7,0.3
		C116.8,90.5,116.7,90.8,116.7,91.2L116.7,91.2z"/>
</g>
</svg>
