<?xml version="1.0" encoding="utf-8"?>
<!-- Generator: Adobe Illustrator 21.0.0, SVG Export Plug-In . SVG Version: 6.00 Build 0)  -->
<svg version="1.1" id="Layer_1" xmlns="http://www.w3.org/2000/svg" xmlns:xlink="http://www.w3.org/1999/xlink" x="0px" y="0px"
	 viewBox="0 0 263 62" style="enable-background:new 0 0 263 62;" xml:space="preserve">
<style type="text/css">
	.st0{display:none;fill:#FF0000;}
	.st1{display:none;fill:#FFFFFF;}
	.st2{fill:#FFFFFF;}
	.st3{opacity:0.8;}
	.st4{fill:none;stroke:#FFFFFF;stroke-width:0.75;stroke-miterlimit:10;}
	.st5{fill-rule:evenodd;clip-rule:evenodd;fill:#00A551;}
	.st6{fill-rule:evenodd;clip-rule:evenodd;fill:#D1BB33;}
	.st7{fill:#D1BB33;}
	.st8{fill:#1F66B0;}
	.st9{fill:#A6A8AB;}
</style>
<rect x="-241" y="-42" class="st0" width="566" height="197"/>
<g>
	<g id="remo_1_">
		<g>
			<path class="st2" d="M27.2,33.1c-1.4,0.4-2.4,0.5-3,0.4c0.8,4.6,4.6,8.5,9.2,7.6c0.2,1.6-3.6,5.1-7.4,0.2c-2.8-3.6-3-8.2-2.9-8.4
				c-0.3-0.5-0.3-1.1-0.2-1.4c3,0.3,13.5-4.3,11.6-8.4c-0.9-1.9-5.3-2.2-9.4-1c-3,0.9-5.8,2.8-7.2,3.9c-3.5,2.6-4.1,5.8-3.4,6.4
				c1.3,1.1,3.5-0.9,3.5-0.9s0.8,0.6,0.3,1.3c-0.9,1.4-3.8,1.6-5.5-0.3c-2.8-3.2,0.5-8.2,6-10.8c5.6-2.7,14.9-3.4,16.8,1.2
				C37.3,26.7,31.5,31.8,27.2,33.1z M18.2,39.8C17,34,22.4,24.6,23.6,23.7c0,0,1.9-1.2,1.7-0.8c-1.9,4.5-3.7,9.6-3.8,15.6
				c-0.1,2.9,0.6,3,0.6,3C20.8,42.2,18.7,42.2,18.2,39.8z"/>
		</g>
		<g>
			<path class="st2" d="M80,31.9c-0.1,0.4-1.7,2.3-3.4,1.7c0.1-2.1-1.2-6.1-4-5.9c-1.3,0.1-2.1,1.1-1.5,2.6c-2.7-0.2-4,1.2-4.7,2.7
				c-1.3,2.1-2.7,3.6-4.2,4.5c-0.8,0.6,0-1.8,1.1-4.8c1-2-0.8-3.7-1.1-4c0,0-0.1-0.1-0.1-0.2c-0.7-0.5-1.4-1.9-3.9,1.6
				c-2.3,3.2-3.6,5.8-3.5,5.6c0.2-1,2.9-4.7-1.8-6.1c-1.5-0.5-4.6,5.9-6,7.8c0-0.9,1-2.4,1.7-4.4c0.6-1.3-0.6-2-1.5-2.4
				c-0.6-0.2-0.9,0-1.2,0.3c-0.2,0.4-0.3,0.9-0.5,1.3c-1.2,2.2-4.1,5.7-7.1,5.8c-1.8,0.1-2-2.3-1.4-4.3c0.8-2.7,2-3.8,3-3.9
				c1.1-0.2-0.2,4.5-1.3,5.3c-0.4,0.3-1,0.5-1.3,0.2c-0.6,0.7,0.6,1.6,2.1,1c2.4-0.9,3.9-5.5,1.8-7.2c-0.3-0.3-0.8-0.5-1.4-0.5
				c-2.6-0.2-5.9,2-6.2,6.3c-0.2,2.9,1.7,4.1,4.4,4.3c2.4,0.1,4.8-1.6,6.5-3.6c-0.2,1.2,0,2.3,0.8,3c0.2,0.2,0.4,0.3,0.6,0.4
				c0,0,0,0,0,0l0.1,0v0c1.2,0.2,1.8-1,1.8-1c1.5-2.1,4.4-7.3,4.9-6.9c0.4,0.4-0.8,3-1.3,6.1c-0.4,2.5,2.3,2.1,2.3,2.1
				s1.8-3.1,4.7-7.1c1.5-2.2,2.1-2.8,2.4-2.7c-0.8,2.5-4.1,9,0.2,9.5c1.8,0.2,3.6-1.4,5-3.3c0.4,3,3.2,3.5,5.1,3.5
				c2.2,0,4.8-2.6,5.2-4.7c1.9,0.5,4.1-0.9,4.1-2.3C80.5,32,80.1,31.6,80,31.9z M71.1,37.8c-1.2,0.2-1.7-1.3-1.7-2.4
				c0-1.7,0.8-3.7,2.2-4.1c0.1,0.6,0.9,1.9,2.3,2.5C73.5,35.4,72.8,37.5,71.1,37.8z M74.1,32.7c-1.4-0.7-1.8-1.8-1.8-3.4
				c0-0.4,0.1-0.7,0.6-0.7c1.3,0,1.3,2.3,1.3,3.3C74.1,32.2,74.1,32.5,74.1,32.7z"/>
		</g>
	</g>
	<g class="st3">
		<path class="st2" d="M56.3,40.2h1.5c0.4,0,0.5,0.2,0.5,0.6l0.4,9.8h-1.3L57,41.2h-0.3l-2.3,7.6c-0.1,0.3-0.3,0.5-0.6,0.5h-1.2
			c-0.3,0-0.5-0.2-0.6-0.5l-2.3-7.6h-0.3l-0.4,9.3h-1.3l0.4-9.8c0-0.4,0.2-0.6,0.6-0.6h1.5c0.3,0,0.5,0.2,0.6,0.5l1.9,6.3
			c0.1,0.2,0.1,0.4,0.2,0.8c0.1,0.4,0.1,0.6,0.2,0.6h0.3c0-0.1,0.1-0.3,0.2-0.7c0.1-0.3,0.2-0.6,0.2-0.8l1.9-6.3
			C55.8,40.3,56,40.2,56.3,40.2z"/>
		<path class="st2" d="M66.6,47.3h-4.3l-1,3.2H60l3.3-10c0.1-0.2,0.2-0.4,0.5-0.4h1.4c0.3,0,0.4,0.1,0.5,0.4l3.3,10h-1.4L66.6,47.3z
			 M66.3,46.1L64.9,42c-0.1-0.3-0.2-0.5-0.3-0.8h-0.4L64,42l-1.3,4.1H66.3z"/>
		<path class="st2" d="M71.8,50.5h-1.3V40.2h1.3V50.5z"/>
		<path class="st2" d="M75.7,40.2v8.3c0,0.7,0.3,1,1,1h3.7l0.1,1c-0.9,0.1-2.2,0.1-4,0.1c-1.4,0-2.1-0.6-2.1-1.9v-8.4H75.7z"/>
	</g>
</g>
<line class="st4" x1="100" y1="15" x2="100" y2="55"/>
<g>
	<polygon class="st5" points="217.2,50 224.6,52.7 217.3,51 217.2,50 	"/>
	<path class="st6" d="M227,44.5c-9.8,4.9-26.1,7.6-33.5,2.9l0,1.9C203.6,53.3,218.8,49.1,227,44.5L227,44.5z"/>
	<path class="st6" d="M204.6,41.3c-1.7-0.4-6.4-1-6.9-2.6c-0.2-0.8,0.3-1.8,1-2.3c1.4-0.9,6.5-1.6,8.3-1.7c1.9-0.1,4.4-0.1,6.4-0.1
		c1.6,0.1,11.3,1.4,7.9,4.2c-0.6,0.5-2.2,1-3,1.2c-0.1,0-0.1,0-0.2,0c1-0.5,2.5-0.8,3.3-1.7c2-2.3-6.8-3.2-8-3.3
		c-1.8,0-3.9,0.1-5.7,0.1c-2,0.1-4.2,0.5-6.1,0.9c-1.4,0.3-2.8,0.6-3,2c-0.2,1.3,5.2,2,6.4,2.2c0.2,0.1,0.4,0.3,0.3,0.5
		C205.1,41.3,204.9,41.4,204.6,41.3L204.6,41.3z"/>
	<path class="st5" d="M193,44.2c1.2,1.5,1,4,0.6,5.5c0-1.9,0-4.2-1.6-5.9L193,44.2L193,44.2z"/>
	<path class="st5" d="M197,45.6c1.1,1.8,1.4,4,0.9,5.6c0.2-2,0-3.6-1.5-5.6L197,45.6L197,45.6z"/>
	<path class="st5" d="M200.2,40.1c0.7-1.6,3.7-3,5.3-3.3c0.6-0.1,3.1-0.2,3.8-0.2c-1,0.2-2.1,0.2-3.1,0.4c-1.6,0.2-4.9,1.7-5.5,3.2
		c0,0.1-0.2,0.2-0.3,0.1C200.2,40.4,200.2,40.3,200.2,40.1L200.2,40.1z"/>
	<path class="st5" d="M204.3,41.9c-1.8-0.4-6.8-1.2-7.3-3c-0.2-0.9,0.3-2.2,1.1-2.7c1.5-1,6.8-1.9,8.7-1.9c2.1-0.1,4.6-0.2,6.7-0.1
		c1.6,0.1,11.9,1.6,8.4,4.9c-0.7,0.6-2.5,1.2-3.4,1.6c-0.5,0.2-0.3,0.1-0.7,0.2c0.4-0.2,0.8-0.4,1.2-0.6c1-0.4,2.3-0.8,3-1.7
		c2.1-2.7-7.2-3.8-8.4-3.8c-1.9-0.1-4.1,0.1-6,0.2c-2.1,0.1-4.4,0.5-6.5,1.1c-1.4,0.4-2.9,0.6-3.1,2.3c-0.2,1.5,5.5,2.4,6.7,2.6
		c0.3,0.1,0.4,0.3,0.4,0.6C204.9,41.8,204.6,42,204.3,41.9L204.3,41.9z"/>
	<path class="st5" d="M197,35.4c-2.6,1.1-8.2,3.2-4.3,6.6c2.3,2,7.3,2.7,10.3,3.2c3,0.6,12.9,0.2,16-0.5c0.9-0.2,1-0.2,1.9-0.3
		c2.4-0.3,6.6-1.6,7.6-4.1c0.9-2.2-2.2-3.4-3.8-4.1c-2-0.9-2.6-1-4.7-1.3l-0.5-0.1c2.1,0.1,3.3,0.3,5.2,1.2c1.8,0.8,5,2,4.1,4.6
		c-1,2.7-5.3,4.1-8,4.5c-1,0.1-0.9,0.1-1.9,0.3c-1.7,0.4-4.1,0.6-5.9,0.7c-3.4,0.2-7.7,0.5-11.1-0.2c-3.5-0.7-9-1.1-11.1-4.4
		c-2.5-3.8,2.9-5.8,5.6-7c0.2-0.1,0.5,0,0.6,0.2C197.3,35,197.2,35.3,197,35.4L197,35.4z"/>
	<path class="st5" d="M197.1,34.9c-2.6,1.1-8.2,3.2-4.3,6.6c2.3,2,7.3,2.7,10.3,3.2c3,0.6,12.9,0.2,16-0.5c0.9-0.2,1-0.2,1.9-0.3
		c2.4-0.3,6.6-1.6,7.6-4.1c0.9-2.2-2.2-3.4-3.8-4.1c-2-0.9-2.6-1-4.7-1.3l-0.5-0.1c2.1,0.1,3.3,0.3,5.2,1.2c1.8,0.8,5,2,4.1,4.6
		c-1,2.7-5.3,4.1-8,4.5c-1,0.1-0.9,0.1-1.9,0.3c-1.7,0.4-4.1,0.6-5.9,0.7c-3.4,0.2-7.7,0.5-11.1-0.2c-3.5-0.7-9-1.1-11.1-4.4
		c-2.5-3.8,2.9-5.8,5.6-7c0.2-0.1,0.5,0,0.6,0.2C197.4,34.5,197.3,34.8,197.1,34.9L197.1,34.9z"/>
	<path class="st5" d="M219.2,40.1c-0.5-1.6-1.9-2.1-3.3-2.5c-1.2-0.3-2.4-0.4-3.7-0.7c1.3,0,3,0.2,4.3,0.6c1.5,0.4,2.6,1,3.1,2.6
		c0,0.1-0.1,0.2-0.2,0.3C219.3,40.3,219.2,40.2,219.2,40.1L219.2,40.1z"/>
	<path class="st5" d="M219.3,39.5c-0.4-1.6-1.9-2.1-3.3-2.5c-1.2-0.3-2.4-0.4-3.7-0.7c1.3,0,3,0.2,4.3,0.6c1.5,0.4,2.6,1,3.1,2.6
		c0,0.1-0.1,0.2-0.2,0.3C219.4,39.7,219.3,39.7,219.3,39.5L219.3,39.5z"/>
	<path class="st5" d="M200.3,39.6c0.7-1.6,3.7-3,5.3-3.3c0.6-0.1,3.1-0.2,3.8-0.2c-1,0.2-2.1,0.2-3.1,0.4c-1.6,0.2-4.9,1.7-5.5,3.2
		c0,0.1-0.2,0.2-0.3,0.1C200.3,39.9,200.2,39.7,200.3,39.6L200.3,39.6z"/>
	<path class="st5" d="M199.8,46.6c-2.2-0.8-4.7-0.8-6.7-2c-1.2-0.7-2-0.9-2.7-2.3c-0.5-1-0.7-2.6-0.2-3.7c0.2-0.4,0.8-1.8,1.4-2
		c-0.5,0.4-1,1.5-1.2,2c-0.4,0.9-0.3,2.1,0.1,3c0.6,1.6,1.5,1.9,2.8,2.6c1.9,1.1,4.6,1.2,6.7,1.9c0.1,0.1,0.2,0.2,0.1,0.3
		C200,46.6,199.9,46.6,199.8,46.6L199.8,46.6z"/>
	<path class="st5" d="M199.9,46c-2.2-0.8-4.7-0.8-6.7-2c-1.2-0.7-2-0.9-2.7-2.3c-0.5-1-0.7-2.6-0.2-3.7c0.2-0.4,0.8-1.8,1.4-2
		c-0.5,0.4-1,1.5-1.2,2c-0.4,0.9-0.3,2.1,0.1,3c0.6,1.6,1.5,1.9,2.8,2.6c1.9,1.1,4.6,1.2,6.7,1.9c0.1,0.1,0.2,0.2,0.1,0.3
		C200.1,46.1,200,46.1,199.9,46L199.9,46z"/>
	<polygon class="st5" points="192.6,37.3 197.2,37.4 193.6,36.4 192.6,37.3 	"/>
	<polygon class="st5" points="191.4,40.4 197.2,38.4 191,39.3 191.4,40.4 	"/>
	<polygon class="st5" points="194.8,43.1 198.9,39.4 193.6,42.4 194.8,43.1 	"/>
	<polygon class="st5" points="201.1,38.8 198.1,37.1 200.7,39.3 201.1,38.8 	"/>
	<polygon class="st5" points="219.3,38.7 222.4,37.1 219.6,39.3 219.3,38.7 	"/>
	<polygon class="st5" points="218.2,37.8 220.7,35.6 218.8,38.2 218.2,37.8 	"/>
	<polygon class="st5" points="216.6,37.1 218,34.7 217.3,37.3 216.6,37.1 	"/>
	<polygon class="st5" points="214.1,36.5 215.3,34.1 214.8,36.7 214.1,36.5 	"/>
	<polygon class="st5" points="202.4,37.9 199.5,35.8 201.7,38.3 202.4,37.9 	"/>
	<polygon class="st5" points="203.5,37.3 201.8,35 202.9,37.6 203.5,37.3 	"/>
	<polygon class="st5" points="204.9,36.7 204.1,34.4 204.3,36.9 204.9,36.7 	"/>
	<polygon class="st5" points="205.9,36.4 205.9,34.2 206.4,36.4 205.9,36.4 	"/>
	<polygon class="st5" points="207.6,36.3 207.7,34.1 208.1,36.2 207.6,36.3 	"/>
	<polygon class="st5" points="199.8,44.5 201.7,40.4 198.2,44 199.8,44.5 	"/>
	<polygon class="st5" points="224.6,35.5 222.3,36.7 225.4,35.9 224.6,35.5 	"/>
	<polygon class="st5" points="228.5,37.5 222.4,37.5 228.9,38.5 228.5,37.5 	"/>
	<polygon class="st5" points="228.4,40.7 221.7,38.7 227.4,41.7 228.4,40.7 	"/>
	<polygon class="st5" points="224.6,43.4 219.1,39.9 223.1,43.9 224.6,43.4 	"/>
	<polygon class="st5" points="211.4,45.3 210.5,41.6 209.2,45.3 211.4,45.3 	"/>
	<polygon class="st5" points="204.8,45.4 205.7,41.7 203.4,45.2 204.8,45.4 	"/>
	<polygon class="st5" points="216.9,45 214.9,41.5 215.8,45.3 216.9,45 	"/>
	<path class="st5" d="M204.4,41.4c-1.8-0.4-6.8-1.2-7.3-3c-0.2-0.9,0.3-2.2,1.1-2.7c1.5-1,6.8-1.9,8.7-1.9c2.1-0.1,4.6-0.2,6.7-0.1
		c1.6,0.1,11.9,1.6,8.4,4.9c-0.7,0.6-2.5,1.2-3.4,1.6c-0.5,0.2-0.3,0.1-0.7,0.2c0.4-0.2,0.8-0.4,1.2-0.6c1-0.4,2.3-0.8,3-1.7
		c2.1-2.7-7.2-3.8-8.4-3.8c-1.9-0.1-4.1,0.1-6,0.2c-2.1,0.1-4.4,0.5-6.5,1.1c-1.4,0.4-2.9,0.6-3.1,2.3c-0.2,1.5,5.5,2.4,6.7,2.6
		c0.3,0.1,0.4,0.3,0.4,0.6C205,41.3,204.7,41.4,204.4,41.4L204.4,41.4z"/>
	<path class="st5" d="M223.7,43.7c-0.5,2.4,0.3,4.8,1.2,6.6c-0.7-2.4-1.1-4.1-0.4-6.9L223.7,43.7L223.7,43.7z"/>
	<path class="st5" d="M218,45.2c-1.1,2.3-1.1,5.1-0.6,7.2c-0.2-2.6,0.2-5.2,1.7-7.8L218,45.2L218,45.2z"/>
	<path class="st5" d="M202.8,45.3c1.1,2,1.3,5.5,0.8,7.3c0.2-2.2-0.2-5.5-1.7-7.7L202.8,45.3L202.8,45.3z"/>
	<path class="st5" d="M227.6,43.6c-9.8,4.9-26.6,7.1-34,2.4l0,2.2C203.6,52.2,219.3,48.2,227.6,43.6L227.6,43.6z"/>
	<path class="st5" d="M209,45.4c0.9,2.4,0.8,6.8,1.1,9.1c-0.3-2.2,0-6.8,1.2-9.1L209,45.4L209,45.4z"/>
	<path class="st5" d="M227.3,42.8c-0.6,1.9-0.2,3.3,0.7,4.6c-0.7-1.8-0.8-3.7,0.1-5.9L227.3,42.8L227.3,42.8z"/>
	<polygon class="st5" points="226.4,50.7 218.2,44.5 224.9,51.4 226.4,50.7 	"/>
	<polygon class="st5" points="227.4,49 220.5,44 221.9,43.8 227.4,49 	"/>
	<polygon class="st5" points="224.9,51.1 224.2,51.5 220.2,49.5 224.9,51.1 	"/>
	<path class="st5" d="M230,49.1c-3.4,0.4-6.4,2.6-8.9,4.8l1.9,1.1C221.3,53.1,225.8,50.3,230,49.1L230,49.1z"/>
	<path class="st5" d="M224,54.2c1.2-1.8,5-3.7,8.1-4.5c0.1,0.1,0.3,0.2,0.5,0.4C228.1,50,223.5,54.4,224,54.2L224,54.2z"/>
	<path class="st5" d="M224.5,54.8c1.2-1.8,4.5-4.2,7.6-5c0.1,0.1,0.8,0.7,0.9,0.9C228.6,50.6,224.1,54.9,224.5,54.8L224.5,54.8z"/>
	<path class="st7" d="M185.4,15.3c0.2,0,0.1,0.1,0.4,0.4c0.2,0.3,0.1,0.5,0.1,0.8c0,0.1,0,0.4-0.1,0.8c0,0.2,0,0.5,0,1.1
		c0,0.9,0,1.4,0,1.7c0.1,0.6,0,0.7,0,0.8c0,0.4,0,0.7,0,1.4c0,0.2,0,0.3,0,0.4l0,0.4l0,0.8v1.4c0,0.3,0,0.6,0,0.8l0,1.4v0.9
		c0,0.6,0,1.1,0,1.6c0,0.2,0,0.3,0,0.3l0,0.4v2l0,2.4v0.4l0,0.5c0,0.8,0,1.3,0.1,1.3c0,0,0.4,0.1,1.1,0c0.3,0,0.6,0,0.9,0.1
		c0.4,0.1,0.6,0.1,0.7,0.1c0,0,0.1,0.3,0.1,0.7c0.2,0.3,0.3,0.5,0.3,0.7c0,0.6-0.5,0.8-1.4,0.8c-0.2,0-0.5,0-1-0.1
		c-0.1,0-0.1,0-0.2,0c-0.4,0-0.5,0.2-0.5,0.5c0,1.8,0,2.8,0.1,3.1c0.1,0.4,0.1,0.5,0.1,0.5l0,0.8c0.2,0.5,0.2,0.8,0.2,0.9
		c0,0.4-0.1,0.8-0.3,1c-0.2,0.4-0.4,0.6-0.6,0.6c-0.2,0-0.4-0.2-0.7-0.6c-0.1-0.2-0.2-0.5-0.2-0.8c0-0.3,0-0.4,0-0.5
		c0-0.1,0-0.2,0-0.2c0,0,0-0.2,0.1-0.4c0-0.2,0-1.3,0-3.3V40v-0.3c0-0.2-0.1-0.3-0.2-0.3c-0.2-0.1-0.5-0.1-0.9-0.1
		c-0.1,0-0.3,0-0.6,0c-0.3,0-0.6,0-1.1,0c-0.6,0-1,0-1.4,0c-0.4,0-0.6,0-0.8,0c-0.4,0-0.7,0.1-0.8,0.2c-0.1,0.1-0.1,0.5-0.1,1.5
		c0,0.4,0,0.6,0,0.8c0,0.1,0.1,0.4,0.3,0.7c0.1,0.2,0.1,0.3,0.1,0.5V43c0,0.4-0.1,0.8-0.3,1.1c-0.2,0.3-0.5,0.5-0.8,0.5
		c-0.3,0-0.5-0.2-0.6-0.5c-0.1-0.3-0.1-0.5-0.1-0.7l0-0.6v-0.4c0.1-1.1,0.1-1.8,0.1-2.1c0-0.6-0.1-0.9-0.3-0.9c0,0-0.1,0-0.2,0.1
		c-0.1,0-0.2,0-0.4,0c0,0-1,0-1.4,0c-0.4,0.1-0.7,0.1-1,0.1l-0.9,0.1h-0.2c-0.3,0-0.4,0-0.4,0c-0.1,0-0.2-0.1-0.4-0.2
		c-0.2-0.1-0.3-0.3-0.3-0.4c0,0-0.1-0.3-0.1-0.7c0.5-0.4,0.7-0.6,0.9-0.6l0.7,0.1c0.3-0.1,0.5,0.1,0.7,0.1c0.3,0,0.5-0.1,0.8,0
		c0.2,0,0.4,0,0.5,0l0.6-0.1l0.8-0.1c0.3-0.1,0.5-0.1,0.6-0.2c0.1,0,0.1-0.1,0.1-0.2l0-0.4v-1.6l-0.1-1.7c0-1.2,0-1.9-0.1-1.9
		c0-0.1,0-0.6-0.1-0.8c-0.1-0.2-0.1-0.4-0.1-0.6c0-0.1,0-0.5,0.1-1.1c0-0.2,0-0.4,0-0.6c0-0.1,0-0.3,0-0.7c0-0.3,0-0.9,0-2.1
		c0-0.6,0-1-0.1-1.2c0-0.2,0-0.3,0-0.4c0-0.4,0.1-0.8,0.2-1c0.1-0.3,0.2-0.3,0.2-0.3l0.6,0c0.1,0,0.3,0.2,0.6,0.5
		c0.2,0.2,0.3,0.4,0.3,0.7c0,0.4-0.1,1.1-0.2,2c-0.2,0.8-0.2,2.5-0.2,4.9c0,0.3,0,0.7,0,1.1c0,1.5,0.1,2.7,0.1,3.4
		c0,0.1,0,0.5,0.1,1.3l0,0.8c0,0.2,0.1,0.2,0.3,0.2l0.3,0c3.2-0.1,4.9-0.3,5.2-0.4c0.1,0,0.2-0.2,0.2-0.4c0-0.2,0-1,0-2.3
		c0-0.2,0-0.7,0-1.7c0-1.3,0-2.7,0-4.2c0-1,0-3,0.1-6l-0.1-5.6c0-0.5,0.1-0.9,0.2-1.3c0.1-0.3,0.2-0.5,0.3-0.5l0.3,0c0,0,0,0,0.1,0
		C185.3,15.3,185.4,15.3,185.4,15.3L185.4,15.3z"/>
	<path class="st7" d="M185.3,47.2c-0.3,0-0.6-0.2-0.9-0.7l0,0c-0.1-0.3-0.2-0.6-0.2-0.9c0-0.3,0-0.4,0-0.4l0,0c0-0.2,0-0.2,0-0.3
		c0,0,0-0.1,0.1-0.5c0-0.2,0-0.9,0-3.2v-1.4c0,0,0-0.1-0.1-0.1c-0.1,0-0.3-0.1-0.8-0.1h-1.7c-0.6,0-1.1,0-1.4,0c-0.4,0-0.6,0-0.8,0
		c-0.4,0-0.6,0.1-0.7,0.1c0,0.1-0.1,0.4-0.1,1.3c0,0.4,0,0.6,0,0.7c0,0.1,0.1,0.3,0.3,0.6l0,0c0.1,0.2,0.1,0.4,0.1,0.6V43
		c0,0.5-0.1,0.9-0.4,1.3c-0.3,0.4-0.6,0.6-1,0.6c-0.3,0-0.7-0.1-0.9-0.7c-0.1-0.3-0.2-0.6-0.2-0.8l0,0l0-0.6l0-0.5
		c0.1-1.1,0.1-1.8,0.1-2c0-0.4-0.1-0.6-0.1-0.6c0,0-0.1,0-0.1,0l0,0c-0.1,0-0.3,0.1-0.5,0.1h0c0,0-0.3,0-0.7,0c-0.4,0-0.6,0-0.7,0
		c-0.4,0.1-0.7,0.1-1,0.1l-0.9,0.1h-0.2c-0.2,0-0.4,0-0.4,0h0l0,0c-0.1,0-0.2-0.1-0.5-0.3c-0.2-0.2-0.3-0.3-0.4-0.5
		c0-0.1-0.1-0.1-0.1-0.7l0-0.1l0.1-0.1c0.6-0.6,0.9-0.7,1-0.7c0,0,0,0,0,0l0.7,0.1c0.1,0,0.1,0,0.2,0c0.2,0,0.3,0,0.4,0.1
		c0,0,0.1,0,0.1,0c0.1,0,0.2,0,0.2,0c0.1,0,0.2,0,0.3,0c0.1,0,0.2,0,0.3,0l0,0c0,0,0.1,0,0.1,0c0.1,0,0.2,0,0.2,0c0,0,0,0,0.1,0
		l0.6-0.1l0.8-0.1c0.3-0.1,0.4-0.1,0.5-0.1c0,0,0,0,0,0l0,0l0-0.5v-1.6l-0.1-1.7c0-1.5,0-1.8-0.1-1.9c0,0,0-0.1,0-0.2
		c0-0.2,0-0.4-0.1-0.6c-0.1-0.3-0.1-0.5-0.1-0.7c0-0.1,0-0.5,0.1-1.1c0-0.2,0-0.4,0-0.6v-2.7c0-0.6,0-1-0.1-1.2l0,0
		c0-0.3,0-0.4,0-0.4c0-0.4,0.1-0.8,0.2-1.1c0.1-0.3,0.3-0.4,0.3-0.5l0.1,0l0.7,0l0,0c0.1,0,0.3,0.1,0.7,0.5l0,0
		c0.2,0.2,0.4,0.5,0.4,0.9c0,0.5-0.1,1.1-0.2,2c-0.2,0.8-0.2,2.5-0.2,4.9c0,0.3,0,0.7,0,1.1c0,1.5,0.1,2.7,0.1,3.4
		c0,0,0,0.3,0.1,1.3l0,0l0,0.7c0,0,0,0,0,0l0,0l0.3,0c3.9-0.2,4.9-0.3,5.1-0.3l0,0c0,0,0-0.1,0-0.2c0-0.2,0-0.7,0-2.3
		c0-0.2,0-0.7,0-1.7c0-1.3,0-2.7,0-4.2c0-1,0-3,0.1-6l-0.1-5.6c0-0.5,0.1-0.9,0.2-1.4c0.2-0.4,0.3-0.7,0.5-0.7c0,0,0,0,0,0l0.2,0
		c0,0,0,0,0,0c0.1,0,0.1-0.1,0.2-0.1c0,0,0,0,0.1,0c0.2,0,0.3,0.2,0.4,0.3c0,0.1,0.1,0.1,0.1,0.2c0.2,0.3,0.2,0.6,0.1,0.8
		c0,0.1,0,0.1,0,0.2c0,0.1,0,0.2-0.1,0.8c0,0.2,0,0.5,0,1.1c0,1.1,0,1.5,0,1.6c0.1,0.5,0.1,0.7,0,0.8c0,0,0,0,0,0.1
		c0,0.1,0,0.3,0,0.4c0,0.3,0,0.5,0,1c0,0.1,0,0.2,0,0.2c0,0.1,0,0.1,0,0.1l0,0.4l0,0.8v1.4l0,0c0,0.3,0,0.5,0,0.8l0,1.4v0.9
		c0,0.6,0,1.1,0,1.6c0,0.2,0,0.3,0,0.3l0,0.4v2l0,2.4v0.4l0,0.5c0,0.6,0,0.9,0,1.1c0.1,0,0.2,0,0.4,0c0.1,0,0.3,0,0.4,0h0
		c0.3,0,0.6,0,0.9,0.1c0.7,0.1,0.7,0.1,0.8,0.2l0,0c0.1,0.1,0.1,0.1,0.2,0.8c0.3,0.5,0.4,0.6,0.4,0.7c0,0.5-0.3,1.1-1.7,1.1
		c-0.2,0-0.5,0-1-0.1l0,0c0,0-0.1,0-0.1,0c-0.3,0-0.3,0.1-0.3,0.2c0,2.2,0,2.9,0.1,3.1c0.1,0.6,0.1,0.6,0.1,0.6l0,0l0,0.7
		c0.2,0.6,0.2,0.8,0.2,1c0,0.5-0.1,0.8-0.3,1.2C185.9,47,185.6,47.2,185.3,47.2L185.3,47.2z M184.8,46.2L184.8,46.2
		c0.3,0.4,0.4,0.5,0.5,0.5c0,0,0.2,0,0.4-0.4l0,0c0.1-0.2,0.2-0.5,0.2-0.9c0-0.1,0-0.3-0.2-0.9l0,0l0-0.8c0-0.1-0.1-0.4-0.1-0.5
		c0-0.2-0.1-0.7-0.1-3.2c0-0.5,0.3-0.7,0.8-0.7c0.1,0,0.2,0,0.2,0c0.4,0.1,0.8,0.1,0.9,0.1c1.1,0,1.2-0.4,1.2-0.6c0,0,0-0.1-0.3-0.5
		l0-0.1l0-0.1c0-0.3-0.1-0.5-0.1-0.5c-0.1,0-0.2,0-0.5-0.1l0,0c-0.3-0.1-0.6-0.1-0.8-0.1c-0.2,0-0.3,0-0.4,0c-0.7,0-0.8,0-0.8-0.1
		c-0.1-0.1-0.1-0.1-0.1-1.5l0-0.5V35l0-2.4v-2l0-0.4c0-0.1,0-0.2,0-0.3c0-0.5,0-1,0-1.6v-0.9l0-1.4c0-0.3,0-0.6,0-0.9l0-1.4l0-0.8
		l0-0.4c0-0.1,0-0.1,0-0.2c0-0.1,0-0.1,0-0.2c0-0.5,0-0.8,0-1c0-0.1,0-0.3,0-0.4c0-0.1,0-0.1,0-0.1c0-0.1,0-0.2,0-0.7
		c0-0.2-0.1-0.8-0.1-1.7c0-0.6,0-1,0-1.1c0.1-0.5,0.1-0.7,0.1-0.7c0-0.1,0-0.2,0-0.3c0-0.2,0-0.2,0-0.3c-0.1-0.1-0.1-0.2-0.2-0.3
		c-0.1,0-0.1,0.1-0.2,0.1h0l-0.2,0c0,0.1-0.1,0.2-0.1,0.3c-0.1,0.4-0.2,0.8-0.2,1.2l0.1,5.6l0,0c-0.1,2.9-0.1,4.9-0.1,6
		c0,1.5,0,2.9,0,4.2c0,1,0,1.5,0,1.7c0,1.3,0,2.1,0,2.3c0,0.4-0.2,0.6-0.4,0.6c-0.2,0.1-1,0.2-5.3,0.4l-0.3,0c0,0,0,0-0.1,0
		c-0.3,0-0.5-0.2-0.5-0.5l0,0l0-0.8c0-0.8-0.1-1.2-0.1-1.3c0-0.7,0-1.9-0.1-3.4c0-0.4,0-0.8,0-1.1c0-2.5,0.1-4.1,0.2-4.9
		c0.2-0.8,0.2-1.5,0.2-1.9c0-0.2-0.1-0.4-0.2-0.5c-0.3-0.3-0.5-0.4-0.5-0.4l-0.4,0c0,0-0.1,0.1-0.1,0.2c-0.1,0.2-0.2,0.6-0.2,0.9
		c0,0,0,0.1,0,0.4c0,0.3,0.1,0.7,0.1,1.3v2.7c0,0.2,0,0.4,0,0.6l0,0c0,0.6-0.1,1-0.1,1.1c0,0.2,0,0.4,0.1,0.6c0,0.2,0.1,0.5,0.1,0.7
		c0,0.1,0,0.1,0,0.2c0,0.1,0,0.3,0.1,2l0.1,1.7v1.6l0,0.4c0,0.3-0.1,0.4-0.2,0.5c-0.1,0-0.2,0.1-0.7,0.2l0,0l-0.8,0.1l-0.6,0.1
		c0,0,0,0,0,0c-0.1,0-0.2,0-0.3,0c-0.1,0-0.1,0-0.2,0c-0.1,0-0.1,0-0.2,0c-0.1,0-0.2,0-0.3,0c-0.1,0-0.2,0-0.3,0c-0.1,0-0.2,0-0.3,0
		c-0.1,0-0.2,0-0.3,0c0,0-0.1,0-0.1,0l0,0l-0.7-0.1c0,0-0.2,0.1-0.6,0.5c0,0.3,0.1,0.4,0.1,0.5l0,0c0,0,0,0.1,0.2,0.2
		c0.2,0.1,0.2,0.2,0.3,0.2c0.1,0,0.2,0,0.4,0l0,0h0.2l0.9-0.1c0.3,0,0.6,0,1-0.1l0,0c0.1,0,0.4,0,0.7,0c0.3,0,0.6,0,0.7,0
		c0.2,0,0.3,0,0.3,0c0.2-0.1,0.2-0.1,0.3-0.1l0,0c0.6,0,0.6,0.9,0.6,1.2c0,0.3,0,0.9-0.1,2.1l0,0.4l0,0.6c0,0.2,0,0.4,0.1,0.6
		c0.1,0.3,0.3,0.4,0.4,0.4c0.2,0,0.4-0.1,0.6-0.4c0.2-0.3,0.3-0.6,0.3-1v0v-0.1c0-0.1,0-0.2-0.1-0.4c-0.2-0.3-0.3-0.6-0.3-0.7
		c0-0.2,0-0.4,0-0.8c0-1.4,0.1-1.6,0.3-1.7c0.2-0.1,0.5-0.2,1-0.2c0.2,0,0.4,0,0.8,0c0.3,0,0.8,0,1.4,0h1.7c0.5,0,0.8,0,1,0.1
		c0.3,0.1,0.4,0.3,0.4,0.6v1.4c0,2,0,3.1,0,3.3l0,0l0,0c-0.1,0.2-0.1,0.3-0.1,0.3c0,0,0,0.1,0,0.2c0,0.1,0,0.2,0,0.5
		C184.7,45.8,184.7,46,184.8,46.2L184.8,46.2z"/>
	<path class="st7" d="M237.1,34.7c-1.2,0-2.4,0.3-3.7,0.8c-0.5,0.2-0.9,0.5-1.3,0.8c-0.4,0.3-0.6,0.6-0.6,0.8c0,0.3,0.2,0.5,0.5,0.7
		c0.3,0.2,0.6,0.3,0.9,0.4c0.3,0.1,1.3,0.3,3,0.6c1.1,0.2,1.9,0.5,2.4,0.8c0.5,0.3,0.7,0.8,0.7,1.3c0,0.5-0.2,1-0.6,1.5
		c-0.6,0.7-1.5,1.3-2.8,1.8c-1.2,0.5-2.4,0.8-3.3,0.8c-0.5,0-1-0.1-1.4-0.4c-0.3-0.2-0.4-0.3-0.5-0.4c0-0.1-0.1-0.2-0.1-0.3
		c-0.1-0.3-0.1-0.5-0.1-0.7c0-0.2,0.1-0.4,0.4-0.6c0.3-0.2,0.6-0.3,0.9-0.3c0.2,0,0.4,0.1,0.6,0.2c0.2,0.2,0.3,0.3,0.3,0.4l0,0.6
		c0,0.1,0.2,0.2,0.5,0.2c0.1,0,0.2,0,0.3,0c0.1,0,0.1,0,0.1,0c0.1,0,0.1,0,0.2,0c0.1,0,0.5-0.1,1.3-0.3c0.6-0.1,1-0.3,1.2-0.5
		c0.2-0.1,0.3-0.3,0.5-0.4c0.2-0.1,0.4-0.3,0.6-0.6c0.2-0.3,0.2-0.5,0.2-0.7c0-0.7-0.8-1.1-2.3-1.3c-1.9-0.3-3.1-0.5-3.6-0.7
		c-1.1-0.4-1.7-1-1.7-1.7c0-0.4,0.2-0.8,0.6-1.2c0.8-0.8,1.9-1.5,3.3-2.1c1.5-0.6,2.9-0.8,4.3-0.8c0.7,0,1.2,0.2,1.5,0.5
		c0.2,0.3,0.4,0.6,0.4,0.9c0,0.4-0.2,0.8-0.5,1c-0.2,0.1-0.4,0.2-0.6,0.2c-0.2,0-0.4-0.1-0.5-0.2c-0.2-0.1-0.2-0.2-0.2-0.4
		c0,0,0-0.1,0-0.1l0.1-0.4C238.1,34.8,237.7,34.7,237.1,34.7L237.1,34.7z"/>
	<path class="st7" d="M242.2,28.5c0.2,0,0.3,0.1,0.4,0.3c0.1,0.2,0.2,0.4,0.2,0.7c0,0.5,0,1-0.1,1.6l0,0.4c-0.2,1.2-0.3,2-0.3,2.1
		c-0.1,0.1-0.1,0.2-0.1,0.2c0,0.1,0.1,0.2,0.2,0.2c0.2,0,0.7,0,1.6,0.1c1.3,0.1,2.1,0.1,2.2,0.2c0.1,0,0.1,0.1,0.2,0.2
		c0.1,0.1,0.1,0.2,0.1,0.3c0,0.2-0.1,0.6-0.3,1c-0.1,0.2-0.3,0.4-0.5,0.4c-0.1,0-0.4,0-0.8-0.1c-0.1,0-0.6-0.1-1.4-0.1
		c-0.8,0-1.3-0.1-1.6-0.1c-0.2,0-0.3,0.1-0.4,0.4c0,0,0,0.1-0.1,0.2c-0.1,0.4-0.2,0.8-0.2,1.1c0,0,0,0.9,0.1,2.5
		c0,0.4,0.1,0.9,0.3,1.4c0.2,0.6,0.3,1,0.5,1.4c0.2,0.4,0.4,0.6,0.7,0.6c0.4,0,0.8-0.4,1.3-1.2c0.5-0.8,0.9-1.9,1.3-3.3
		c0.1-0.3,0.1-0.5,0.2-0.6c0.1-0.2,0.1-0.2,0.1-0.3c0-0.3,0.1-0.5,0.1-0.5c0.1,0,0.2,0.1,0.2,0.3l0,0.7c0,0,0,0.1,0,0.3
		c0.1,0.3,0.1,0.6,0.1,0.8c0,0.4-0.1,1-0.4,1.8c-0.2,0.7-0.4,1.2-0.6,1.6c-0.2,0.3-0.3,0.6-0.5,0.8c-0.6,0.7-0.9,1.1-0.9,1.1
		c-0.4,0.3-0.7,0.4-1,0.4c-0.8,0-1.5-0.8-1.9-2.3c-0.4-1.2-0.6-2.7-0.6-4.4c0-0.2,0-0.8,0-1.9v-0.4c0-0.1,0-0.3,0-0.4
		c0-0.1,0-0.2-0.1-0.2c-0.1,0-0.2,0-0.3,0c-0.1,0-0.2,0-0.4,0c-0.4,0-0.8,0.1-1,0.2c-0.2,0-0.3,0.1-0.5,0.1c-0.3,0-0.4-0.2-0.4-0.6
		c0-0.2,0-0.3,0-0.4c0-0.1,0.1-0.1,0.3-0.3l0-0.1c0.1-0.3,0.3-0.4,0.5-0.5c0.5-0.1,0.8-0.2,1.2-0.2c0,0,0.1,0,0.2,0l0.1-0.1
		c0.4-0.1,0.6-0.1,0.6-0.1c0.1-0.2,0.1-0.4,0.1-0.5l0.3-1.8c0.4-1.8,0.6-2.8,0.7-3C241.8,28.6,241.9,28.5,242.2,28.5L242.2,28.5z"/>
	<path class="st7" d="M253,38.6c0.1,0,0.1,0.1,0.2,0.2c0,0.1,0,0.3,0,0.4l-0.1,0.3c-0.2,1.1-0.4,2-0.6,2.5c-0.2,0.5-0.4,1-0.8,1.4
		c-0.9,1.2-2,1.8-3.3,1.8c-1,0-1.7-0.4-2.3-1.2c-0.5-0.8-0.8-1.7-0.8-2.7c0-2,0.5-3.9,1.4-5.7c0.4-0.8,0.9-1.5,1.4-2
		c0.5-0.5,1-0.8,1.4-0.8c0.1,0,0.3,0,0.6,0.1c0.3,0.1,0.5,0.2,0.6,0.2c0.4,0.2,0.6,0.7,0.6,1.5c0,0.9-0.2,1.9-0.5,2.9
		c-0.3,1-0.8,1.9-1.4,2.8c-0.4,0.6-0.7,0.9-0.9,1.2c-0.2,0.2-0.5,0.5-0.9,0.7c-0.2,0.1-0.3,0.3-0.3,0.4c0,0.2,0.2,0.4,0.5,0.6
		c0.3,0.2,0.7,0.3,1.1,0.3c0.9,0,1.6-0.4,2.3-1.3c0.2-0.2,0.5-0.7,0.8-1.4c0.3-0.7,0.6-1.3,0.7-1.8C252.8,38.7,252.9,38.6,253,38.6
		L253,38.6z M249.3,34.3L249.3,34.3c-0.3,0-0.8,0.3-1.3,1c-0.3,0.4-0.6,0.9-0.8,1.6c-0.1,0.2-0.1,0.4-0.2,0.6
		c-0.2,0.4-0.3,0.8-0.3,1.1c0,0.3-0.1,0.9-0.1,1.8l0,0.2c0,0.2,0.1,0.3,0.2,0.3c0.1,0,0.4-0.2,0.8-0.6c0.5-0.4,0.8-0.7,0.9-0.9
		c0.5-0.6,0.8-1.3,1.1-2c0.3-0.7,0.4-1.3,0.4-1.9C250,34.7,249.8,34.3,249.3,34.3L249.3,34.3z"/>
	<path class="st7" d="M259.9,35.9c0.1,0,0.2,0.2,0.3,0.6c0.1,0.4,0.1,0.8,0.1,1.3c0,0.9-0.2,2-0.7,3.2c-0.5,1.3-1,2.3-1.7,3
		c-0.2,0.3-0.5,0.5-0.9,0.7c-0.4,0.2-0.7,0.3-1,0.3c-0.4,0-0.8-0.2-1.3-0.5c-0.4-0.4-0.8-0.8-1.1-1.4c-0.7-1.5-1-3.2-1-5.1
		c0-2.5,0.2-4.9,0.7-7.2c0.8-4,1.6-6,2.5-6c0.1,0,0.3,0,0.6,0.1c0.3,0.1,0.5,0.1,0.6,0.2c0.2,0.1,0.4,0.5,0.7,1.2
		c0.4,0.9,0.6,2.1,0.6,3.6c0,1.9-0.3,3.8-1,5.7c-0.4,1.1-0.9,2.2-1.7,3.2c-0.5,0.6-0.8,1-1,1.1c-0.2,0.1-0.3,0.3-0.3,0.4
		c0,0.2,0.1,0.5,0.2,1c0.2,0.6,0.4,1,0.7,1.3c0.3,0.3,0.6,0.5,1,0.5c0.5,0,1.1-0.4,1.7-1.2c0.2-0.3,0.4-0.6,0.5-0.9
		c0.1-0.3,0.4-1.3,0.9-2.8c0.3-1,0.5-1.7,0.5-1.9C259.7,36.1,259.8,35.9,259.9,35.9L259.9,35.9z M255.9,26.5L255.9,26.5
		c-0.4,0.1-0.9,1.2-1.4,3.3c-0.5,2-0.8,4.4-0.8,7v0.4c0,0.3,0,0.4,0,0.5c0,0.1,0.1,0.3,0.2,0.5l0.3-0.2c0.2-0.1,0.3-0.1,0.3-0.1
		c0,0,0.1-0.1,0.2-0.3c0-0.1,0.4-0.6,1.1-1.7c0.4-0.6,0.7-1.4,1-2.5c0.3-1.1,0.4-2.1,0.4-3.1c0-1.1-0.2-2-0.5-2.8
		C256.4,26.8,256.1,26.5,255.9,26.5L255.9,26.5z"/>
	<path class="st8" d="M130.5,44.4h1.5l-0.7-11.8h-1.9l-2.1,5.7c-0.3,0.7-0.5,1.4-0.7,2.1c-0.2,0.7-0.4,1.3-0.6,1.9h0
		c-0.2-0.6-0.3-1.2-0.5-1.9c-0.2-0.7-0.4-1.4-0.7-2.1l-2-5.7h-1.9L120,44.4h1.5l0.3-5.1c0-0.6,0.1-1.2,0.1-1.8
		c0-0.6,0.1-1.2,0.1-1.8c0-0.6,0-1.1,0-1.6h0c0.2,0.7,0.4,1.4,0.6,2.2c0.2,0.8,0.5,1.6,0.8,2.4l1.9,5.6h1.2l2.1-5.7
		c0.3-0.8,0.6-1.6,0.8-2.3c0.2-0.7,0.5-1.5,0.7-2.1h0c0,0.4,0,0.8,0,1.2c0,0.4,0,0.9,0,1.3c0,0.4,0,0.9,0.1,1.3c0,0.4,0,0.9,0.1,1.3
		L130.5,44.4L130.5,44.4z M140.4,39.2c0-0.4,0-0.8-0.1-1.3c-0.1-0.4-0.3-0.8-0.5-1.1c-0.2-0.3-0.6-0.6-1-0.8c-0.4-0.2-1-0.3-1.6-0.3
		c-0.4,0-0.7,0-1,0.1c-0.3,0.1-0.7,0.1-1,0.3c-0.3,0.1-0.6,0.2-0.8,0.4l0.4,1c0.2-0.1,0.4-0.2,0.7-0.3c0.2-0.1,0.5-0.2,0.8-0.2
		c0.3,0,0.5-0.1,0.8-0.1c0.3,0,0.6,0,0.9,0.1c0.2,0.1,0.4,0.2,0.6,0.4c0.1,0.1,0.2,0.3,0.3,0.5c0.1,0.2,0.1,0.4,0.1,0.5
		c0,0.2,0,0.3,0,0.5V39c-1.1,0-2,0.1-2.8,0.4c-0.8,0.2-1.3,0.6-1.7,1.1c-0.4,0.5-0.6,1-0.6,1.7c0,0.3,0.1,0.6,0.2,0.9
		c0.1,0.3,0.3,0.5,0.5,0.8c0.2,0.2,0.5,0.4,0.8,0.6c0.3,0.1,0.7,0.2,1.1,0.2c0.4,0,0.8-0.1,1.1-0.2c0.3-0.1,0.6-0.3,0.9-0.5
		c0.3-0.2,0.5-0.4,0.6-0.6h0.1l0.1,1.1h1.4c0-0.3-0.1-0.6-0.1-1c0-0.3,0-0.7,0-1.1V39.2L140.4,39.2z M138.9,41.6c0,0.1,0,0.2,0,0.2
		c0,0.1,0,0.2-0.1,0.2c-0.1,0.2-0.2,0.5-0.4,0.7c-0.2,0.2-0.4,0.4-0.7,0.5c-0.3,0.1-0.6,0.2-1,0.2c-0.3,0-0.5-0.1-0.7-0.2
		c-0.2-0.1-0.4-0.3-0.5-0.5c-0.1-0.2-0.2-0.5-0.2-0.8c0-0.3,0.1-0.6,0.2-0.8c0.1-0.2,0.3-0.4,0.6-0.6c0.2-0.1,0.5-0.3,0.8-0.3
		c0.3-0.1,0.6-0.1,1-0.2c0.3,0,0.7,0,1,0V41.6L138.9,41.6z M142.9,44.4h1.5v-4.5c0-0.1,0-0.2,0-0.4c0-0.1,0-0.2,0-0.4
		c0.1-0.4,0.2-0.7,0.4-1c0.2-0.3,0.4-0.5,0.7-0.7c0.3-0.2,0.6-0.3,1-0.3c0.1,0,0.2,0,0.3,0c0.1,0,0.2,0,0.2,0v-1.5
		c-0.1,0-0.1,0-0.2,0c-0.1,0-0.1,0-0.2,0c-0.3,0-0.7,0.1-1,0.2c-0.3,0.2-0.6,0.4-0.8,0.6c-0.2,0.3-0.4,0.6-0.6,1h-0.1l-0.1-1.7h-1.3
		c0,0.4,0,0.8,0.1,1.2c0,0.4,0,0.9,0,1.4V44.4L142.9,44.4z M154.5,39.2c0-0.4,0-0.8-0.1-1.3c-0.1-0.4-0.3-0.8-0.5-1.1
		c-0.2-0.3-0.6-0.6-1-0.8c-0.4-0.2-1-0.3-1.6-0.3c-0.4,0-0.7,0-1,0.1c-0.3,0.1-0.7,0.1-1,0.3c-0.3,0.1-0.6,0.2-0.8,0.4l0.4,1
		c0.2-0.1,0.4-0.2,0.7-0.3c0.2-0.1,0.5-0.2,0.8-0.2c0.3,0,0.5-0.1,0.8-0.1c0.3,0,0.6,0,0.9,0.1c0.2,0.1,0.4,0.2,0.6,0.4
		c0.1,0.1,0.2,0.3,0.3,0.5c0.1,0.2,0.1,0.4,0.1,0.5c0,0.2,0,0.3,0,0.5V39c-1.1,0-2,0.1-2.8,0.4c-0.8,0.2-1.3,0.6-1.7,1.1
		c-0.4,0.5-0.6,1-0.6,1.7c0,0.3,0.1,0.6,0.2,0.9c0.1,0.3,0.3,0.5,0.5,0.8c0.2,0.2,0.5,0.4,0.8,0.6c0.3,0.1,0.7,0.2,1.1,0.2
		c0.4,0,0.8-0.1,1.1-0.2c0.3-0.1,0.6-0.3,0.9-0.5c0.3-0.2,0.5-0.4,0.6-0.6h0.1l0.1,1.1h1.4c0-0.3-0.1-0.6-0.1-1c0-0.3,0-0.7,0-1.1
		V39.2L154.5,39.2z M153,41.6c0,0.1,0,0.2,0,0.2c0,0.1,0,0.2-0.1,0.2c-0.1,0.2-0.2,0.5-0.4,0.7c-0.2,0.2-0.4,0.4-0.7,0.5
		c-0.3,0.1-0.6,0.2-1,0.2c-0.3,0-0.5-0.1-0.7-0.2c-0.2-0.1-0.4-0.3-0.5-0.5c-0.1-0.2-0.2-0.5-0.2-0.8c0-0.3,0.1-0.6,0.2-0.8
		c0.1-0.2,0.3-0.4,0.6-0.6c0.2-0.1,0.5-0.3,0.8-0.3c0.3-0.1,0.6-0.1,1-0.2c0.3,0,0.7,0,1,0V41.6L153,41.6z M162.8,43
		c-0.2,0.1-0.5,0.2-0.8,0.3c-0.3,0.1-0.7,0.1-1.1,0.1c-0.4,0-0.8-0.1-1.2-0.2c-0.4-0.1-0.7-0.4-0.9-0.6c-0.3-0.3-0.5-0.6-0.6-1
		c-0.1-0.4-0.2-0.8-0.2-1.3c0-0.4,0.1-0.9,0.2-1.2c0.1-0.4,0.3-0.7,0.6-1c0.3-0.3,0.6-0.5,0.9-0.7c0.4-0.2,0.8-0.3,1.3-0.3
		c0.4,0,0.8,0,1.1,0.1c0.3,0.1,0.5,0.2,0.7,0.3l0.4-1.2c-0.1-0.1-0.3-0.2-0.5-0.2c-0.2-0.1-0.5-0.1-0.7-0.2c-0.3,0-0.6-0.1-0.9-0.1
		c-0.7,0-1.3,0.1-1.9,0.3c-0.6,0.2-1,0.5-1.4,0.9c-0.4,0.4-0.7,0.9-0.9,1.4c-0.2,0.5-0.3,1.2-0.3,1.8c0,0.7,0.1,1.2,0.3,1.8
		c0.2,0.5,0.5,1,0.9,1.4c0.4,0.4,0.8,0.7,1.3,0.9c0.5,0.2,1.1,0.3,1.7,0.3c0.4,0,0.7,0,1-0.1c0.3-0.1,0.6-0.1,0.8-0.2
		c0.2-0.1,0.4-0.1,0.6-0.2L162.8,43L162.8,43z M170.8,39.2c0-0.4,0-0.8-0.1-1.3c-0.1-0.4-0.3-0.8-0.5-1.1c-0.2-0.3-0.6-0.6-1-0.8
		c-0.4-0.2-1-0.3-1.6-0.3c-0.4,0-0.7,0-1,0.1c-0.3,0.1-0.7,0.1-1,0.3c-0.3,0.1-0.6,0.2-0.8,0.4l0.4,1c0.2-0.1,0.4-0.2,0.7-0.3
		c0.2-0.1,0.5-0.2,0.8-0.2c0.3,0,0.5-0.1,0.8-0.1c0.3,0,0.6,0,0.9,0.1c0.2,0.1,0.4,0.2,0.6,0.4c0.1,0.1,0.2,0.3,0.3,0.5
		c0.1,0.2,0.1,0.4,0.1,0.5c0,0.2,0,0.3,0,0.5V39c-1.1,0-2,0.1-2.8,0.4c-0.8,0.2-1.3,0.6-1.7,1.1c-0.4,0.5-0.6,1-0.6,1.7
		c0,0.3,0.1,0.6,0.2,0.9c0.1,0.3,0.3,0.5,0.5,0.8c0.2,0.2,0.5,0.4,0.8,0.6c0.3,0.1,0.7,0.2,1.1,0.2c0.4,0,0.8-0.1,1.1-0.2
		c0.3-0.1,0.6-0.3,0.9-0.5c0.3-0.2,0.5-0.4,0.6-0.6h0.1l0.1,1.1h1.4c0-0.3-0.1-0.6-0.1-1c0-0.3,0-0.7,0-1.1V39.2L170.8,39.2z
		 M169.3,41.6c0,0.1,0,0.2,0,0.2c0,0.1,0,0.2-0.1,0.2c-0.1,0.2-0.2,0.5-0.4,0.7c-0.2,0.2-0.4,0.4-0.7,0.5c-0.3,0.1-0.6,0.2-1,0.2
		c-0.3,0-0.5-0.1-0.7-0.2c-0.2-0.1-0.4-0.3-0.5-0.5c-0.1-0.2-0.2-0.5-0.2-0.8c0-0.3,0.1-0.6,0.2-0.8c0.1-0.2,0.3-0.4,0.6-0.6
		c0.2-0.1,0.5-0.3,0.8-0.3c0.3-0.1,0.6-0.1,1-0.2c0.3,0,0.7,0,1,0V41.6L169.3,41.6z"/>
	<path class="st9" d="M143,53.7v-4.5h2c0.4,0,0.7,0,0.9,0.1c0.2,0.1,0.4,0.2,0.5,0.4c0.1,0.2,0.2,0.4,0.2,0.7c0,0.3-0.1,0.6-0.3,0.8
		c-0.2,0.2-0.5,0.4-1,0.4c0.2,0.1,0.3,0.2,0.4,0.2c0.2,0.2,0.3,0.4,0.5,0.6l0.8,1.2h-0.8l-0.6-0.9c-0.2-0.3-0.3-0.5-0.4-0.6
		c-0.1-0.1-0.2-0.2-0.3-0.3c-0.1-0.1-0.2-0.1-0.3-0.1c-0.1,0-0.2,0-0.3,0h-0.7v2H143L143,53.7z M143.6,51.1h1.3c0.3,0,0.5,0,0.6-0.1
		c0.2-0.1,0.3-0.1,0.4-0.3c0.1-0.1,0.1-0.3,0.1-0.4c0-0.2-0.1-0.4-0.2-0.5c-0.2-0.1-0.4-0.2-0.7-0.2h-1.4V51.1L143.6,51.1z
		 M147.9,49.8v-0.6h0.6v0.6H147.9L147.9,49.8z M147.9,53.7v-3.3h0.6v3.3H147.9L147.9,53.7z M149.4,52c0-0.6,0.2-1.1,0.5-1.3
		c0.3-0.2,0.6-0.4,1-0.4c0.4,0,0.8,0.1,1.1,0.4c0.3,0.3,0.4,0.7,0.4,1.2c0,0.4-0.1,0.8-0.2,1c-0.1,0.2-0.3,0.4-0.6,0.6
		c-0.2,0.1-0.5,0.2-0.8,0.2c-0.5,0-0.8-0.1-1.1-0.4C149.6,53,149.4,52.6,149.4,52L149.4,52z M150,52c0,0.4,0.1,0.7,0.3,0.9
		c0.2,0.2,0.4,0.3,0.7,0.3c0.3,0,0.5-0.1,0.7-0.3c0.2-0.2,0.3-0.5,0.3-1c0-0.4-0.1-0.7-0.3-0.9c-0.2-0.2-0.4-0.3-0.7-0.3
		c-0.3,0-0.5,0.1-0.7,0.3C150.1,51.3,150,51.6,150,52L150,52z M157.4,53.7v-0.4c-0.2,0.3-0.5,0.5-0.9,0.5c-0.3,0-0.5-0.1-0.7-0.2
		c-0.2-0.1-0.4-0.3-0.5-0.6c-0.1-0.3-0.2-0.6-0.2-0.9c0-0.3,0.1-0.6,0.2-0.9c0.1-0.3,0.3-0.5,0.5-0.6c0.2-0.1,0.5-0.2,0.7-0.2
		c0.2,0,0.4,0,0.5,0.1c0.2,0.1,0.3,0.2,0.4,0.3v-1.6h0.6v4.5H157.4L157.4,53.7z M155.6,52c0,0.4,0.1,0.7,0.3,0.9
		c0.2,0.2,0.4,0.3,0.6,0.3c0.2,0,0.4-0.1,0.6-0.3c0.2-0.2,0.3-0.5,0.3-0.9c0-0.4-0.1-0.8-0.3-1c-0.2-0.2-0.4-0.3-0.6-0.3
		c-0.2,0-0.5,0.1-0.6,0.3C155.7,51.3,155.6,51.6,155.6,52L155.6,52z M161.4,52.6l0.6,0.1c-0.1,0.3-0.3,0.6-0.5,0.8
		c-0.2,0.2-0.6,0.3-0.9,0.3c-0.5,0-0.9-0.1-1.1-0.4c-0.3-0.3-0.4-0.7-0.4-1.2c0-0.6,0.1-1,0.4-1.3c0.3-0.3,0.7-0.5,1.1-0.5
		c0.4,0,0.8,0.1,1.1,0.4c0.3,0.3,0.4,0.7,0.4,1.3c0,0,0,0.1,0,0.1h-2.4c0,0.4,0.1,0.6,0.3,0.8c0.2,0.2,0.4,0.3,0.7,0.3
		c0.2,0,0.4-0.1,0.5-0.2C161.2,53,161.3,52.8,161.4,52.6L161.4,52.6z M159.5,51.7h1.8c0-0.3-0.1-0.5-0.2-0.6
		c-0.2-0.2-0.4-0.3-0.7-0.3c-0.3,0-0.5,0.1-0.6,0.3C159.6,51.2,159.6,51.4,159.5,51.7L159.5,51.7z M164.5,52.4l0.5-0.1
		c0,0.3,0.1,0.6,0.2,0.7c0.1,0.1,0.3,0.2,0.5,0.2c0.2,0,0.3,0,0.4-0.1c0.1-0.1,0.2-0.2,0.2-0.3c0-0.1,0.1-0.3,0.1-0.6v-3.1h0.6v3.1
		c0,0.4,0,0.7-0.1,0.9c-0.1,0.2-0.2,0.4-0.4,0.5c-0.2,0.1-0.4,0.2-0.7,0.2c-0.4,0-0.7-0.1-0.9-0.3C164.6,53.2,164.5,52.8,164.5,52.4
		L164.5,52.4z M170.4,53.2c-0.2,0.2-0.4,0.3-0.6,0.4c-0.2,0.1-0.4,0.1-0.6,0.1c-0.4,0-0.6-0.1-0.8-0.3c-0.2-0.2-0.3-0.4-0.3-0.7
		c0-0.2,0-0.3,0.1-0.4c0.1-0.1,0.2-0.2,0.3-0.3c0.1-0.1,0.3-0.1,0.4-0.2c0.1,0,0.3-0.1,0.5-0.1c0.4-0.1,0.8-0.1,1-0.2
		c0-0.1,0-0.1,0-0.1c0-0.2-0.1-0.4-0.2-0.5c-0.1-0.1-0.4-0.2-0.6-0.2c-0.3,0-0.5,0-0.6,0.1c-0.1,0.1-0.2,0.3-0.3,0.5l-0.5-0.1
		c0-0.2,0.1-0.4,0.2-0.6c0.1-0.1,0.3-0.3,0.5-0.3c0.2-0.1,0.5-0.1,0.7-0.1c0.3,0,0.5,0,0.7,0.1c0.2,0.1,0.3,0.1,0.4,0.2
		c0.1,0.1,0.1,0.2,0.2,0.4c0,0.1,0,0.3,0,0.5v0.7c0,0.5,0,0.8,0,1c0,0.1,0.1,0.3,0.1,0.4h-0.6C170.4,53.5,170.4,53.4,170.4,53.2
		L170.4,53.2z M170.3,52c-0.2,0.1-0.5,0.2-0.9,0.2c-0.2,0-0.4,0.1-0.5,0.1c-0.1,0-0.2,0.1-0.2,0.2c-0.1,0.1-0.1,0.2-0.1,0.3
		c0,0.1,0.1,0.3,0.2,0.4c0.1,0.1,0.3,0.1,0.5,0.1c0.2,0,0.4,0,0.6-0.1c0.2-0.1,0.3-0.2,0.4-0.4c0.1-0.1,0.1-0.3,0.1-0.6V52L170.3,52
		z M172.1,53.7v-3.3h0.5v0.5c0.2-0.4,0.6-0.5,1-0.5c0.2,0,0.4,0,0.5,0.1c0.2,0.1,0.3,0.2,0.4,0.3c0.1,0.1,0.1,0.3,0.2,0.4
		c0,0.1,0,0.3,0,0.5v2h-0.6v-2c0-0.2,0-0.4-0.1-0.5c0-0.1-0.1-0.2-0.2-0.3c-0.1-0.1-0.2-0.1-0.4-0.1c-0.2,0-0.4,0.1-0.6,0.2
		c-0.2,0.2-0.3,0.4-0.3,0.9v1.8H172.1L172.1,53.7z M178.2,52.6l0.6,0.1c-0.1,0.3-0.3,0.6-0.5,0.8c-0.2,0.2-0.6,0.3-0.9,0.3
		c-0.5,0-0.9-0.1-1.1-0.4c-0.3-0.3-0.4-0.7-0.4-1.2c0-0.6,0.1-1,0.4-1.3c0.3-0.3,0.7-0.5,1.1-0.5c0.4,0,0.8,0.1,1.1,0.4
		c0.3,0.3,0.4,0.7,0.4,1.3c0,0,0,0.1,0,0.1h-2.4c0,0.4,0.1,0.6,0.3,0.8c0.2,0.2,0.4,0.3,0.7,0.3c0.2,0,0.4-0.1,0.5-0.2
		C178,53,178.1,52.8,178.2,52.6L178.2,52.6z M176.4,51.7h1.8c0-0.3-0.1-0.5-0.2-0.6c-0.2-0.2-0.4-0.3-0.7-0.3
		c-0.3,0-0.5,0.1-0.6,0.3C176.5,51.2,176.4,51.4,176.4,51.7L176.4,51.7z M179.9,49.8v-0.6h0.6v0.6H179.9L179.9,49.8z M179.9,53.7
		v-3.3h0.6v3.3H179.9L179.9,53.7z M181.6,53.7v-3.3h0.5v0.5c0.1-0.2,0.2-0.4,0.4-0.5c0.1-0.1,0.2-0.1,0.4-0.1c0.2,0,0.4,0.1,0.6,0.2
		l-0.2,0.5c-0.1-0.1-0.3-0.1-0.4-0.1c-0.1,0-0.2,0-0.3,0.1c-0.1,0.1-0.2,0.2-0.2,0.3c-0.1,0.2-0.1,0.4-0.1,0.6v1.7H181.6L181.6,53.7
		z M183.9,52c0-0.6,0.2-1.1,0.5-1.3c0.3-0.2,0.6-0.4,1-0.4c0.4,0,0.8,0.1,1.1,0.4c0.3,0.3,0.4,0.7,0.4,1.2c0,0.4-0.1,0.8-0.2,1
		c-0.1,0.2-0.3,0.4-0.6,0.6c-0.2,0.1-0.5,0.2-0.8,0.2c-0.5,0-0.8-0.1-1.1-0.4C184,53,183.9,52.6,183.9,52L183.9,52z M184.4,52
		c0,0.4,0.1,0.7,0.3,0.9c0.2,0.2,0.4,0.3,0.7,0.3c0.3,0,0.5-0.1,0.7-0.3c0.2-0.2,0.3-0.5,0.3-1c0-0.4-0.1-0.7-0.3-0.9
		c-0.2-0.2-0.4-0.3-0.7-0.3c-0.3,0-0.5,0.1-0.7,0.3C184.5,51.3,184.4,51.6,184.4,52L184.4,52z"/>
</g>
</svg>
